<svg width="220" height="55" viewBox="0 0 220 55" fill="none" xmlns="http://www.w3.org/2000/svg">
<g opacity="0.85">
<path d="M1.63965 1.0001H8.27965C10.5463 1.0001 12.1996 1.53343 13.2396 2.6001C14.2796 3.6401 14.7996 5.25343 14.7996 7.4401V8.5601C14.7996 10.0001 14.5596 11.1734 14.0796 12.0801C13.6263 12.9868 12.9196 13.6401 11.9596 14.0401V14.1201C14.1463 14.8668 15.2396 16.8134 15.2396 19.9601V22.3601C15.2396 24.5201 14.6663 26.1734 13.5196 27.3201C12.3996 28.4401 10.7463 29.0001 8.55965 29.0001H1.63965V1.0001ZM7.75965 12.4001C8.63965 12.4001 9.29298 12.1734 9.71965 11.7201C10.173 11.2668 10.3996 10.5068 10.3996 9.4401V7.8801C10.3996 6.86676 10.213 6.13343 9.83965 5.6801C9.49298 5.22677 8.93298 5.0001 8.15965 5.0001H6.03965V12.4001H7.75965ZM8.55965 25.0001C9.33298 25.0001 9.90631 24.8001 10.2796 24.4001C10.653 23.9734 10.8396 23.2534 10.8396 22.2401V19.8001C10.8396 18.5201 10.613 17.6401 10.1596 17.1601C9.73298 16.6534 9.01298 16.4001 7.99965 16.4001H6.03965V25.0001H8.55965Z" fill="black"/>
<path d="M24.1715 29.4001C22.0115 29.4001 20.3582 28.7868 19.2115 27.5601C18.0649 26.3334 17.4915 24.6001 17.4915 22.3601V7.6401C17.4915 5.4001 18.0649 3.66676 19.2115 2.4401C20.3582 1.21343 22.0115 0.600098 24.1715 0.600098C26.3315 0.600098 27.9849 1.21343 29.1315 2.4401C30.2782 3.66676 30.8515 5.4001 30.8515 7.6401V22.3601C30.8515 24.6001 30.2782 26.3334 29.1315 27.5601C27.9849 28.7868 26.3315 29.4001 24.1715 29.4001ZM24.1715 25.4001C25.6915 25.4001 26.4515 24.4801 26.4515 22.6401V7.3601C26.4515 5.5201 25.6915 4.6001 24.1715 4.6001C22.6515 4.6001 21.8915 5.5201 21.8915 7.3601V22.6401C21.8915 24.4801 22.6515 25.4001 24.1715 25.4001Z" fill="black"/>
<path d="M37.149 1.0001H43.109L47.669 29.0001H43.269L42.469 23.4401V23.5201H37.469L36.669 29.0001H32.589L37.149 1.0001ZM41.949 19.7201L39.989 5.8801H39.909L37.989 19.7201H41.949Z" fill="black"/>
<path d="M51.4078 5.0001H46.8078V1.0001H60.4078V5.0001H55.8078V29.0001H51.4078V5.0001Z" fill="black"/>
<path d="M75.3043 29.4001C73.1443 29.4001 71.491 28.7868 70.3443 27.5601C69.1977 26.3334 68.6243 24.6001 68.6243 22.3601V7.6401C68.6243 5.4001 69.1977 3.66676 70.3443 2.4401C71.491 1.21343 73.1443 0.600098 75.3043 0.600098C77.4643 0.600098 79.1177 1.21343 80.2643 2.4401C81.411 3.66676 81.9843 5.4001 81.9843 7.6401V22.3601C81.9843 24.6001 81.411 26.3334 80.2643 27.5601C79.1177 28.7868 77.4643 29.4001 75.3043 29.4001ZM75.3043 25.4001C76.8243 25.4001 77.5843 24.4801 77.5843 22.6401V7.3601C77.5843 5.5201 76.8243 4.6001 75.3043 4.6001C73.7843 4.6001 73.0243 5.5201 73.0243 7.3601V22.6401C73.0243 24.4801 73.7843 25.4001 75.3043 25.4001Z" fill="black"/>
<path d="M84.96 1.0001H96.6V5.0001H89.36V12.8001H95.04V16.8001H89.36V29.0001H84.96V1.0001Z" fill="black"/>
<path d="M108.556 5.0001H103.956V1.0001H117.556V5.0001H112.956V29.0001H108.556V5.0001Z" fill="black"/>
<path d="M119.687 1.0001H124.087V12.4001H128.807V1.0001H133.207V29.0001H128.807V16.4001H124.087V29.0001H119.687V1.0001Z" fill="black"/>
<path d="M136.483 1.0001H148.483V5.0001H140.883V12.4001H146.923V16.4001H140.883V25.0001H148.483V29.0001H136.483V1.0001Z" fill="black"/>
<path d="M161.461 17.0801L156.141 1.0001H160.821L163.821 11.2801H163.901L166.901 1.0001H171.181L165.861 17.0801V29.0001H161.461V17.0801Z" fill="black"/>
<path d="M173.163 1.0001H185.163V5.0001H177.563V12.4001H183.603V16.4001H177.563V25.0001H185.163V29.0001H173.163V1.0001Z" fill="black"/>
<path d="M191.094 1.0001H197.054L201.614 29.0001H197.214L196.414 23.4401V23.5201H191.414L190.614 29.0001H186.534L191.094 1.0001ZM195.894 19.7201L193.934 5.8801H193.854L191.934 19.7201H195.894Z" fill="black"/>
<path d="M203.749 1.0001H210.269C212.536 1.0001 214.189 1.53343 215.229 2.6001C216.269 3.6401 216.789 5.25343 216.789 7.4401V9.1601C216.789 12.0668 215.829 13.9068 213.909 14.6801V14.7601C214.976 15.0801 215.722 15.7334 216.149 16.7201C216.602 17.7068 216.829 19.0268 216.829 20.6801V25.6001C216.829 26.4001 216.856 27.0534 216.909 27.5601C216.962 28.0401 217.096 28.5201 217.309 29.0001H212.829C212.669 28.5468 212.562 28.1201 212.509 27.7201C212.456 27.3201 212.429 26.6001 212.429 25.5601V20.4401C212.429 19.1601 212.216 18.2668 211.789 17.7601C211.389 17.2534 210.682 17.0001 209.669 17.0001H208.149V29.0001H203.749V1.0001ZM209.749 13.0001C210.629 13.0001 211.282 12.7734 211.709 12.3201C212.162 11.8668 212.389 11.1068 212.389 10.0401V7.8801C212.389 6.86676 212.202 6.13343 211.829 5.6801C211.482 5.22677 210.922 5.0001 210.149 5.0001H208.149V13.0001H209.749Z" fill="black"/>
<path d="M10.5581 51.2236C10.5581 52.3027 10.1348 53.1383 9.28809 53.7305C8.44694 54.3226 7.25993 54.6187 5.72705 54.6187C2.87712 54.6187 1.22526 53.6281 0.771484 51.647L2.30713 51.3398C2.48421 52.0426 2.86051 52.5601 3.43604 52.8921C4.01156 53.2186 4.7946 53.3818 5.78516 53.3818C6.80892 53.3818 7.59749 53.2075 8.15088 52.8589C8.7098 52.5047 8.98926 51.9873 8.98926 51.3066C8.98926 50.9248 8.90072 50.6149 8.72363 50.377C8.55208 50.139 8.30859 49.9425 7.99316 49.7876C7.67773 49.6326 7.30143 49.5026 6.86426 49.3975C6.42708 49.2923 5.94287 49.1789 5.41162 49.0571C4.48747 48.8524 3.78467 48.6476 3.30322 48.4429C2.82731 48.2381 2.45101 48.0112 2.17432 47.7622C1.89762 47.5076 1.68457 47.2116 1.53516 46.874C1.39128 46.5365 1.31934 46.1491 1.31934 45.7119C1.31934 44.7103 1.70117 43.9383 2.46484 43.396C3.23405 42.8537 4.33252 42.5825 5.76025 42.5825C7.08838 42.5825 8.10384 42.7873 8.80664 43.1968C9.50944 43.6007 10.002 44.2925 10.2842 45.272L8.72363 45.5459C8.55208 44.9261 8.22559 44.4779 7.74414 44.2012C7.2627 43.9189 6.59587 43.7778 5.74365 43.7778C4.80843 43.7778 4.09456 43.9328 3.60205 44.2427C3.10954 44.5526 2.86328 45.0146 2.86328 45.6289C2.86328 45.9886 2.95736 46.2874 3.14551 46.5254C3.33919 46.7578 3.61589 46.957 3.97559 47.123C4.33529 47.2835 5.05192 47.4827 6.12549 47.7207C6.48519 47.8037 6.84212 47.8895 7.19629 47.978C7.55599 48.061 7.89909 48.1634 8.22559 48.2852C8.55208 48.4014 8.85645 48.5397 9.13867 48.7002C9.42643 48.8607 9.67546 49.0571 9.88574 49.2896C10.096 49.522 10.2593 49.7959 10.3755 50.1113C10.4972 50.4268 10.5581 50.7975 10.5581 51.2236Z" fill="black"/>
<path d="M21.4504 54.4526L20.114 51.0327H14.7849L13.4401 54.4526H11.7966L16.5695 42.7568H18.3708L23.069 54.4526H21.4504ZM17.4494 43.9521L17.3747 44.1846C17.2364 44.6439 17.0316 45.2332 16.7604 45.9526L15.2663 49.7959H19.6408L18.1384 45.936C17.9834 45.5542 17.8285 45.1226 17.6735 44.6411L17.4494 43.9521Z" fill="black"/>
<path d="M25.0961 54.4526V42.7568H26.6815V54.4526H25.0961Z" fill="black"/>
<path d="M30.0782 54.4526V42.7568H31.6637V53.1577H37.5738V54.4526H30.0782Z" fill="black"/>
<path d="M54.436 54.4526V46.6499C54.436 45.7866 54.4609 44.9565 54.5107 44.1597C54.2396 45.1502 53.9961 45.925 53.7803 46.4839L50.7588 54.4526H49.6465L46.5835 46.4839L46.1187 45.0728L45.8447 44.1597L45.8696 45.0811L45.9028 46.6499V54.4526H44.4917V42.7568H46.5752L49.688 50.8667C49.7987 51.1932 49.9038 51.5446 50.0034 51.9209C50.1086 52.2917 50.1777 52.5601 50.2109 52.7261C50.2552 52.5047 50.3465 52.1699 50.4849 51.7217C50.6287 51.2679 50.7256 50.9829 50.7754 50.8667L53.8301 42.7568H55.8638V54.4526H54.436Z" fill="black"/>
<path d="M67.3703 54.4526L66.0339 51.0327H60.7048L59.3601 54.4526H57.7165L62.4895 42.7568H64.2907L68.989 54.4526H67.3703ZM63.3693 43.9521L63.2946 44.1846C63.1563 44.6439 62.9515 45.2332 62.6804 45.9526L61.1862 49.7959H65.5607L64.0583 45.936C63.9034 45.5542 63.7484 45.1226 63.5935 44.6411L63.3693 43.9521Z" fill="black"/>
<path d="M70.3021 48.5508C70.3021 46.6527 70.8113 45.1834 71.8295 44.1431C72.8477 43.1027 74.2782 42.5825 76.121 42.5825C77.4159 42.5825 78.4673 42.8011 79.2753 43.2383C80.0832 43.6755 80.7058 44.3755 81.143 45.3384L79.6322 45.7866C79.3002 45.1226 78.8409 44.6383 78.2543 44.334C77.6732 44.0296 76.9483 43.8774 76.0795 43.8774C74.7292 43.8774 73.6972 44.2869 72.9833 45.106C72.2694 45.9194 71.9125 47.0677 71.9125 48.5508C71.9125 50.0283 72.2916 51.196 73.0497 52.0537C73.8078 52.9059 74.8565 53.332 76.1957 53.332C76.9594 53.332 77.6705 53.2158 78.329 52.9834C78.9931 52.751 79.5298 52.4355 79.9394 52.0371V49.9287H76.4447V48.6006H81.4003V52.6348C80.7805 53.2656 80.0196 53.7554 79.1176 54.104C78.2211 54.4471 77.2471 54.6187 76.1957 54.6187C74.9727 54.6187 73.9185 54.3752 73.0331 53.8882C72.1477 53.4012 71.4698 52.7012 70.9994 51.7881C70.5346 50.8695 70.3021 49.7904 70.3021 48.5508Z" fill="black"/>
<path d="M92.7906 54.4526L91.4542 51.0327H86.1251L84.7804 54.4526H83.1368L87.9098 42.7568H89.711L94.4093 54.4526H92.7906ZM88.7896 43.9521L88.7149 44.1846C88.5766 44.6439 88.3718 45.2332 88.1007 45.9526L86.6065 49.7959H90.9811L89.4786 45.936C89.3237 45.5542 89.1687 45.1226 89.0138 44.6411L88.7896 43.9521Z" fill="black"/>
<path d="M104.721 54.4526H95.407V53.2656L102.529 44.0518H96.013V42.7568H104.33V43.9106L97.2083 53.1577H104.721V54.4526Z" fill="black"/>
<path d="M107.254 54.4526V42.7568H108.839V54.4526H107.254Z" fill="black"/>
<path d="M119.823 54.4526L113.564 44.4917L113.606 45.2969L113.647 46.6831V54.4526H112.236V42.7568H114.079L120.404 52.7842C120.338 51.6995 120.304 50.9137 120.304 50.4268V42.7568H121.732V54.4526H119.823Z" fill="black"/>
<path d="M124.946 54.4526V42.7568H133.82V44.0518H126.532V47.8037H133.322V49.082H126.532V53.1577H134.16V54.4526H124.946Z" fill="black"/>
<path d="M146.54 54.6187C145.582 54.6187 144.747 54.4443 144.033 54.0957C143.319 53.7471 142.766 53.2407 142.373 52.5767C141.98 51.9126 141.783 51.1213 141.783 50.2026V42.7568H143.369V50.0698C143.369 51.1379 143.64 51.9486 144.182 52.502C144.725 53.0553 145.508 53.332 146.532 53.332C147.583 53.332 148.399 53.047 148.98 52.4771C149.567 51.9015 149.86 51.0632 149.86 49.9619V42.7568H151.437V50.0532C151.437 50.9995 151.235 51.8158 150.831 52.502C150.433 53.1882 149.866 53.7139 149.13 54.0791C148.399 54.4388 147.536 54.6187 146.54 54.6187Z" fill="black"/>
<path d="M163.741 51.2236C163.741 52.3027 163.317 53.1383 162.471 53.7305C161.63 54.3226 160.443 54.6187 158.91 54.6187C156.06 54.6187 154.408 53.6281 153.954 51.647L155.49 51.3398C155.667 52.0426 156.043 52.5601 156.619 52.8921C157.194 53.2186 157.977 53.3818 158.968 53.3818C159.992 53.3818 160.78 53.2075 161.333 52.8589C161.892 52.5047 162.172 51.9873 162.172 51.3066C162.172 50.9248 162.083 50.6149 161.906 50.377C161.735 50.139 161.491 49.9425 161.176 49.7876C160.86 49.6326 160.484 49.5026 160.047 49.3975C159.61 49.2923 159.125 49.1789 158.594 49.0571C157.67 48.8524 156.967 48.6476 156.486 48.4429C156.01 48.2381 155.634 48.0112 155.357 47.7622C155.08 47.5076 154.867 47.2116 154.718 46.874C154.574 46.5365 154.502 46.1491 154.502 45.7119C154.502 44.7103 154.884 43.9383 155.647 43.396C156.417 42.8537 157.515 42.5825 158.943 42.5825C160.271 42.5825 161.286 42.7873 161.989 43.1968C162.692 43.6007 163.185 44.2925 163.467 45.272L161.906 45.5459C161.735 44.9261 161.408 44.4779 160.927 44.2012C160.445 43.9189 159.778 43.7778 158.926 43.7778C157.991 43.7778 157.277 43.9328 156.785 44.2427C156.292 44.5526 156.046 45.0146 156.046 45.6289C156.046 45.9886 156.14 46.2874 156.328 46.5254C156.522 46.7578 156.799 46.957 157.158 47.123C157.518 47.2835 158.235 47.4827 159.308 47.7207C159.668 47.8037 160.025 47.8895 160.379 47.978C160.739 48.061 161.082 48.1634 161.408 48.2852C161.735 48.4014 162.039 48.5397 162.321 48.7002C162.609 48.8607 162.858 49.0571 163.068 49.2896C163.279 49.522 163.442 49.7959 163.558 50.1113C163.68 50.4268 163.741 50.7975 163.741 51.2236Z" fill="black"/>
<path d="M174.633 54.4526L173.297 51.0327H167.967L166.623 54.4526H164.979L169.752 42.7568H171.553L176.252 54.4526H174.633ZM170.632 43.9521L170.557 44.1846C170.419 44.6439 170.214 45.2332 169.943 45.9526L168.449 49.7959H172.823L171.321 45.936C171.166 45.5542 171.011 45.1226 170.856 44.6411L170.632 43.9521Z" fill="black"/>
<path d="M181.775 54.4526V53.3984C182.057 52.751 182.4 52.181 182.804 51.6885C183.214 51.1904 183.643 50.7422 184.091 50.3438C184.539 49.9398 184.982 49.5662 185.419 49.2231C185.862 48.88 186.26 48.5369 186.614 48.1938C186.969 47.8507 187.254 47.491 187.469 47.1147C187.691 46.7384 187.801 46.3123 187.801 45.8364C187.801 45.1945 187.613 44.6965 187.237 44.3423C186.861 43.9881 186.338 43.811 185.668 43.811C185.032 43.811 184.506 43.9854 184.091 44.334C183.681 44.6771 183.441 45.1613 183.369 45.7866L181.841 45.6455C181.952 44.7103 182.348 43.966 183.028 43.4126C183.715 42.8592 184.594 42.5825 185.668 42.5825C186.847 42.5825 187.752 42.862 188.382 43.4209C189.019 43.9743 189.337 44.7629 189.337 45.7866C189.337 46.2404 189.232 46.6914 189.022 47.1396C188.817 47.5879 188.51 48.0361 188.1 48.4844C187.691 48.9326 186.908 49.6271 185.751 50.5679C185.115 51.0881 184.608 51.5584 184.232 51.979C183.856 52.394 183.585 52.7952 183.419 53.1826H189.52V54.4526H181.775Z" fill="black"/>
<path d="M199.598 48.6006C199.598 50.554 199.253 52.0454 198.561 53.0747C197.875 54.104 196.859 54.6187 195.514 54.6187C194.17 54.6187 193.16 54.1068 192.485 53.083C191.81 52.0592 191.472 50.5651 191.472 48.6006C191.472 46.5918 191.798 45.0866 192.451 44.085C193.11 43.0833 194.148 42.5825 195.564 42.5825C196.942 42.5825 197.958 43.0889 198.611 44.1016C199.269 45.1143 199.598 46.6139 199.598 48.6006ZM198.079 48.6006C198.079 46.9128 197.883 45.6898 197.49 44.9316C197.103 44.1735 196.461 43.7944 195.564 43.7944C194.646 43.7944 193.984 44.168 193.58 44.915C193.182 45.6621 192.983 46.8906 192.983 48.6006C192.983 50.2607 193.185 51.4754 193.589 52.2446C193.998 53.0138 194.646 53.3984 195.531 53.3984C196.411 53.3984 197.056 53.0055 197.465 52.2197C197.875 51.4339 198.079 50.2275 198.079 48.6006Z" fill="black"/>
<path d="M201.991 54.4526V53.1826H204.971V44.1846L202.331 46.0688V44.6577L205.095 42.7568H206.473V53.1826H209.32V54.4526H201.991Z" fill="black"/>
<path d="M219.3 51.1904C219.3 52.2695 218.956 53.1107 218.27 53.7139C217.584 54.3171 216.599 54.6187 215.315 54.6187C214.064 54.6187 213.085 54.3226 212.377 53.7305C211.674 53.1383 211.322 52.2972 211.322 51.207C211.322 50.4434 211.541 49.8014 211.978 49.2812C212.415 48.7611 212.974 48.4456 213.655 48.335V48.3018C213.019 48.1523 212.515 47.8286 212.144 47.3306C211.779 46.8325 211.596 46.2487 211.596 45.5791C211.596 44.6882 211.928 43.966 212.592 43.4126C213.262 42.8592 214.159 42.5825 215.282 42.5825C216.433 42.5825 217.341 42.8537 218.005 43.396C218.674 43.9383 219.009 44.6715 219.009 45.5957C219.009 46.2653 218.824 46.8491 218.453 47.3472C218.082 47.8452 217.576 48.1579 216.934 48.2852V48.3184C217.681 48.4401 218.262 48.7583 218.677 49.2729C219.092 49.7821 219.3 50.4212 219.3 51.1904ZM217.457 45.6787C217.457 44.3561 216.732 43.6948 215.282 43.6948C214.579 43.6948 214.042 43.8608 213.672 44.1929C213.306 44.5249 213.124 45.0202 213.124 45.6787C213.124 46.3483 213.312 46.8602 213.688 47.2144C214.07 47.563 214.607 47.7373 215.299 47.7373C216.001 47.7373 216.535 47.5768 216.901 47.2559C217.271 46.9294 217.457 46.4036 217.457 45.6787ZM217.747 51.0493C217.747 50.3244 217.531 49.7793 217.1 49.4141C216.668 49.0433 216.062 48.8579 215.282 48.8579C214.524 48.8579 213.932 49.0571 213.506 49.4556C213.079 49.8485 212.866 50.3908 212.866 51.0825C212.866 52.6929 213.688 53.498 215.332 53.498C216.145 53.498 216.751 53.3044 217.15 52.917C217.548 52.5241 217.747 51.9015 217.747 51.0493Z" fill="black"/>
</g>
</svg>
