<svg width="307" height="76" viewBox="0 0 307 76" fill="none" xmlns="http://www.w3.org/2000/svg">
<path d="M12.9438 23.0166H8.39795V35.3145H0V0.478516H13.7095C17.8407 0.478516 21.0706 1.39567 23.3994 3.22998C25.7282 5.06429 26.8926 7.65625 26.8926 11.0059C26.8926 13.4303 26.3981 15.4401 25.4092 17.0352C24.4362 18.6302 22.9049 19.9222 20.8154 20.9111L28.0889 34.9556V35.3145H19.0928L12.9438 23.0166ZM8.39795 16.5327H13.7095C15.3045 16.5327 16.5008 16.118 17.2983 15.2886C18.1118 14.4432 18.5186 13.2708 18.5186 11.7715C18.5186 10.2721 18.1118 9.09977 17.2983 8.25439C16.4849 7.39307 15.2886 6.9624 13.7095 6.9624H8.39795V16.5327Z" fill="black"/>
<path d="M52.5898 20.5522H39.3828V28.8545H54.9824V35.3145H30.9848V0.478516H55.0303V6.9624H39.3828V14.3076H52.5898V20.5522Z" fill="black"/>
<path d="M70.9419 25.8398L77.8803 0.478516H87.2592L75.5356 35.3145H66.3481L54.7202 0.478516H64.0273L70.9419 25.8398Z" fill="black"/>
<path d="M110.444 20.5522H97.2372V28.8545H112.837V35.3145H88.8393V0.478516H112.885V6.9624H97.2372V14.3076H110.444V20.5522Z" fill="black"/>
<path d="M128.222 23.0166H123.676V35.3145H115.278V0.478516H128.988C133.119 0.478516 136.349 1.39567 138.678 3.22998C141.006 5.06429 142.171 7.65625 142.171 11.0059C142.171 13.4303 141.676 15.4401 140.687 17.0352C139.714 18.6302 138.183 19.9222 136.094 20.9111L143.367 34.9556V35.3145H134.371L128.222 23.0166ZM123.676 16.5327H128.988C130.583 16.5327 131.779 16.118 132.577 15.2886C133.39 14.4432 133.797 13.2708 133.797 11.7715C133.797 10.2721 133.39 9.09977 132.577 8.25439C131.763 7.39307 130.567 6.9624 128.988 6.9624H123.676V16.5327Z" fill="black"/>
<path d="M164.231 26.0552C164.231 24.827 163.793 23.87 162.915 23.1841C162.054 22.4982 160.531 21.7884 158.346 21.0547C156.16 20.321 154.374 19.6112 152.986 18.9253C148.472 16.7082 146.215 13.6616 146.215 9.78564C146.215 7.85563 146.774 6.1569 147.89 4.68945C149.023 3.20605 150.618 2.05762 152.675 1.24414C154.733 0.414714 157.046 0 159.614 0C162.118 0 164.359 0.446615 166.337 1.33984C168.331 2.23307 169.878 3.50911 170.978 5.16797C172.079 6.81087 172.629 8.69303 172.629 10.8145H164.255C164.255 9.39486 163.817 8.29427 162.939 7.5127C162.078 6.73112 160.906 6.34033 159.422 6.34033C157.923 6.34033 156.735 6.67529 155.857 7.34521C154.996 7.99919 154.565 8.83659 154.565 9.85742C154.565 10.7507 155.044 11.5641 156.001 12.2979C156.958 13.0156 158.641 13.7653 161.049 14.5469C163.458 15.3125 165.436 16.1419 166.983 17.0352C170.747 19.2044 172.629 22.1951 172.629 26.0073C172.629 29.0539 171.481 31.4465 169.184 33.1851C166.887 34.9237 163.737 35.793 159.733 35.793C156.91 35.793 154.35 35.2905 152.053 34.2856C149.772 33.2648 148.05 31.8771 146.885 30.1226C145.737 28.3521 145.163 26.3184 145.163 24.0215H153.584C153.584 25.8877 154.063 27.2674 155.02 28.1606C155.993 29.0379 157.564 29.4766 159.733 29.4766C161.121 29.4766 162.214 29.1815 163.011 28.5913C163.825 27.9852 164.231 27.1398 164.231 26.0552Z" fill="black"/>
<path d="M205.456 18.6143C205.456 22.0117 204.826 25.0184 203.566 27.6343C202.306 30.2502 200.512 32.2679 198.183 33.6875C195.87 35.0911 193.23 35.793 190.264 35.793C187.297 35.793 184.665 35.1151 182.368 33.7593C180.071 32.3875 178.277 30.4336 176.985 27.8975C175.709 25.3613 175.039 22.4504 174.975 19.1646V17.2026C174.975 13.7892 175.597 10.7826 176.841 8.18262C178.101 5.56673 179.896 3.54899 182.224 2.12939C184.569 0.709798 187.233 0 190.216 0C193.167 0 195.798 0.701823 198.111 2.10547C200.424 3.50911 202.218 5.51091 203.495 8.11084C204.786 10.6948 205.44 13.6616 205.456 17.0112V18.6143ZM196.915 17.1548C196.915 13.6935 196.333 11.0697 195.168 9.2832C194.02 7.48079 192.369 6.57959 190.216 6.57959C186.005 6.57959 183.78 9.73779 183.54 16.0542L183.516 18.6143C183.516 22.0277 184.083 24.6515 185.215 26.4858C186.348 28.3201 188.03 29.2373 190.264 29.2373C192.385 29.2373 194.02 28.3361 195.168 26.5337C196.317 24.7313 196.899 22.1393 196.915 18.7578V17.1548Z" fill="black"/>
<path d="M240.648 26.2227H226.053L222.775 35.3145H218.038L231.341 0.478516H235.36L248.687 35.3145H243.974L240.648 26.2227ZM227.441 22.4424H239.284L233.351 6.14893L227.441 22.4424Z" fill="black"/>
<path d="M262.715 35.3145H258.121V0.478516H262.715V35.3145Z" fill="black"/>
<path d="M288.323 21.2222H280.141V35.3145H275.523V0.478516H287.055C290.979 0.478516 293.994 1.37174 296.099 3.1582C298.221 4.94466 299.281 7.5446 299.281 10.958C299.281 13.1273 298.691 15.0174 297.511 16.6284C296.347 18.2394 294.72 19.4437 292.63 20.2412L300.813 35.0273V35.3145H295.884L288.323 21.2222ZM280.141 17.4658H287.199C289.48 17.4658 291.29 16.8757 292.63 15.6953C293.986 14.515 294.664 12.9359 294.664 10.958C294.664 8.80469 294.018 7.15381 292.726 6.00537C291.45 4.85693 289.599 4.27474 287.175 4.25879H280.141V17.4658Z" fill="black"/>
<path d="M5.68457 67.3809L3.59863 69.5488V75.3145H1.34863V58.252H3.59863V66.6895L11.1807 58.252H13.8994L7.18457 65.7871L14.4268 75.3145H11.7314L5.68457 67.3809Z" fill="black"/>
<path d="M30.8574 70.8613H23.7089L22.1035 75.3145H19.7832L26.2988 58.252H28.2675L34.7949 75.3145H32.4863L30.8574 70.8613ZM24.3886 69.0098H30.1894L27.2832 61.0293L24.3886 69.0098Z" fill="black"/>
<path d="M48.3896 68.4121H44.3818V75.3145H42.12V58.252H47.7685C49.6904 58.252 51.1669 58.6895 52.1982 59.5645C53.2372 60.4395 53.7568 61.7129 53.7568 63.3848C53.7568 64.4473 53.4677 65.373 52.8896 66.1621C52.3193 66.9512 51.5224 67.541 50.4989 67.9316L54.5068 75.1738V75.3145H52.0927L48.3896 68.4121ZM44.3818 66.5723H47.8388C48.956 66.5723 49.8427 66.2832 50.4989 65.7051C51.163 65.127 51.495 64.3535 51.495 63.3848C51.495 62.3301 51.1786 61.5215 50.5458 60.959C49.9208 60.3965 49.0146 60.1113 47.8271 60.1035H44.3818V66.5723Z" fill="black"/>
<path d="M64.8671 58.252L70.4452 72.1738L76.0233 58.252H78.9413V75.3145H76.6913V68.6699L76.9022 61.498L71.3007 75.3145H69.578L63.9882 61.5332L64.2108 68.6699V75.3145H61.9608V58.252H64.8671Z" fill="black"/>
<path d="M97.5868 70.8613H90.4383L88.8329 75.3145H86.5125L93.0282 58.252H94.9969L101.524 75.3145H99.2157L97.5868 70.8613ZM91.118 69.0098H96.9188L94.0125 61.0293L91.118 69.0098Z" fill="black"/>
<path d="M126.112 68.4121H122.104V75.3145H119.843V58.252H125.491C127.413 58.252 128.889 58.6895 129.921 59.5645C130.96 60.4395 131.479 61.7129 131.479 63.3848C131.479 64.4473 131.19 65.373 130.612 66.1621C130.042 66.9512 129.245 67.541 128.221 67.9316L132.229 75.1738V75.3145H129.815L126.112 68.4121ZM122.104 66.5723H125.561C126.678 66.5723 127.565 66.2832 128.221 65.7051C128.885 65.127 129.218 64.3535 129.218 63.3848C129.218 62.3301 128.901 61.5215 128.268 60.959C127.643 60.3965 126.737 60.1113 125.55 60.1035H122.104V66.5723Z" fill="black"/>
<path d="M149.328 67.4277H141.933V73.4746H150.523V75.3145H139.683V58.252H150.406V60.1035H141.933V65.5879H149.328V67.4277Z" fill="black"/>
<path d="M158.364 75.3145V58.252H163.18C164.665 58.252 165.977 58.5801 167.118 59.2363C168.258 59.8926 169.137 60.8262 169.755 62.0371C170.38 63.248 170.696 64.6387 170.704 66.209V67.2988C170.704 68.9082 170.391 70.3184 169.766 71.5293C169.149 72.7402 168.262 73.6699 167.106 74.3184C165.958 74.9668 164.618 75.2988 163.087 75.3145H158.364ZM160.614 60.1035V73.4746H162.981C164.716 73.4746 166.063 72.9355 167.024 71.8574C167.993 70.7793 168.477 69.2441 168.477 67.252V66.2559C168.477 64.3184 168.02 62.8145 167.106 61.7441C166.2 60.666 164.911 60.1191 163.239 60.1035H160.614Z" fill="black"/>
<path d="M199.792 67.4277H192.397V73.4746H200.987V75.3145H190.147V58.252H200.87V60.1035H192.397V65.5879H199.792V67.4277Z" fill="black"/>
<path d="M208.828 75.3145V58.252H213.644C215.128 58.252 216.441 58.5801 217.582 59.2363C218.722 59.8926 219.601 60.8262 220.218 62.0371C220.843 63.248 221.16 64.6387 221.168 66.209V67.2988C221.168 68.9082 220.855 70.3184 220.23 71.5293C219.613 72.7402 218.726 73.6699 217.57 74.3184C216.421 74.9668 215.082 75.2988 213.55 75.3145H208.828ZM211.078 60.1035V73.4746H213.445C215.179 73.4746 216.527 72.9355 217.488 71.8574C218.457 70.7793 218.941 69.2441 218.941 67.252V66.2559C218.941 64.3184 218.484 62.8145 217.57 61.7441C216.664 60.666 215.375 60.1191 213.703 60.1035H211.078Z" fill="black"/>
<path d="M232.032 75.3145H229.782V58.252H232.032V75.3145Z" fill="black"/>
<path d="M252.634 60.1035H247.15V75.3145H244.912V60.1035H239.439V58.252H252.634V60.1035Z" fill="black"/>
<path d="M262.62 75.3145H260.37V58.252H262.62V75.3145Z" fill="black"/>
<path d="M284.91 67.334C284.91 69.0059 284.628 70.4668 284.066 71.7168C283.503 72.959 282.706 73.9082 281.675 74.5645C280.644 75.2207 279.441 75.5488 278.066 75.5488C276.722 75.5488 275.531 75.2207 274.492 74.5645C273.453 73.9004 272.644 72.959 272.066 71.7402C271.496 70.5137 271.203 69.0957 271.187 67.4863V66.2559C271.187 64.6152 271.472 63.166 272.042 61.9082C272.613 60.6504 273.417 59.6895 274.456 59.0254C275.503 58.3535 276.699 58.0176 278.042 58.0176C279.41 58.0176 280.613 58.3496 281.652 59.0137C282.699 59.6699 283.503 60.627 284.066 61.8848C284.628 63.1348 284.91 64.5918 284.91 66.2559V67.334ZM282.671 66.2324C282.671 64.209 282.265 62.6582 281.453 61.5801C280.64 60.4941 279.503 59.9512 278.042 59.9512C276.621 59.9512 275.499 60.4941 274.679 61.5801C273.867 62.6582 273.449 64.1582 273.425 66.0801V67.334C273.425 69.2949 273.835 70.8379 274.656 71.9629C275.484 73.0801 276.621 73.6387 278.066 73.6387C279.519 73.6387 280.644 73.1113 281.441 72.0566C282.238 70.9941 282.648 69.4746 282.671 67.498V66.2324Z" fill="black"/>
<path d="M306.438 75.3145H304.176L295.586 62.166V75.3145H293.325V58.252H295.586L304.2 71.459V58.252H306.438V75.3145Z" fill="black"/>
</svg>
