<svg width="400" height="37" viewBox="0 0 400 37" fill="none" xmlns="http://www.w3.org/2000/svg">
<path d="M13.5757 23.7021H9.02979V36H0.631836V1.16406H14.3413C18.4725 1.16406 21.7025 2.08122 24.0312 3.91553C26.36 5.74984 27.5244 8.3418 27.5244 11.6914C27.5244 14.1159 27.0299 16.1257 26.041 17.7207C25.068 19.3158 23.5368 20.6077 21.4473 21.5967L28.7207 35.6411V36H19.7246L13.5757 23.7021ZM9.02979 17.2183H14.3413C15.9364 17.2183 17.1326 16.8035 17.9302 15.9741C18.7437 15.1287 19.1504 13.9564 19.1504 12.457C19.1504 10.9577 18.7437 9.78532 17.9302 8.93994C17.1167 8.07861 15.9204 7.64795 14.3413 7.64795H9.02979V17.2183Z" fill="black"/>
<path d="M53.2217 21.2378H40.0146V29.54H55.6142V36H31.6167V1.16406H55.6621V7.64795H40.0146V14.9932H53.2217V21.2378Z" fill="black"/>
<path d="M71.5737 26.5254L78.5122 1.16406H87.8911L76.1674 36H66.9799L55.352 1.16406H64.6591L71.5737 26.5254Z" fill="black"/>
<path d="M111.076 21.2378H97.8691V29.54H113.469V36H89.4711V1.16406H113.517V7.64795H97.8691V14.9932H111.076V21.2378Z" fill="black"/>
<path d="M128.854 23.7021H124.308V36H115.91V1.16406H129.62C133.751 1.16406 136.981 2.08122 139.309 3.91553C141.638 5.74984 142.803 8.3418 142.803 11.6914C142.803 14.1159 142.308 16.1257 141.319 17.7207C140.346 19.3158 138.815 20.6077 136.726 21.5967L143.999 35.6411V36H135.003L128.854 23.7021ZM124.308 17.2183H129.62C131.215 17.2183 132.411 16.8035 133.208 15.9741C134.022 15.1287 134.429 13.9564 134.429 12.457C134.429 10.9577 134.022 9.78532 133.208 8.93994C132.395 8.07861 131.199 7.64795 129.62 7.64795H124.308V17.2183Z" fill="black"/>
<path d="M164.863 26.7407C164.863 25.5125 164.425 24.5555 163.547 23.8696C162.686 23.1838 161.163 22.474 158.977 21.7402C156.792 21.0065 155.006 20.2967 153.618 19.6108C149.104 17.3937 146.847 14.3472 146.847 10.4712C146.847 8.54118 147.405 6.84245 148.522 5.375C149.654 3.8916 151.249 2.74316 153.307 1.92969C155.365 1.10026 157.677 0.685547 160.246 0.685547C162.75 0.685547 164.991 1.13216 166.969 2.02539C168.962 2.91862 170.51 4.19466 171.61 5.85352C172.711 7.49642 173.261 9.37858 173.261 11.5H164.887C164.887 10.0804 164.448 8.97982 163.571 8.19824C162.71 7.41667 161.538 7.02588 160.054 7.02588C158.555 7.02588 157.366 7.36084 156.489 8.03076C155.628 8.68473 155.197 9.52214 155.197 10.543C155.197 11.4362 155.676 12.2497 156.633 12.9834C157.59 13.7012 159.273 14.4508 161.681 15.2324C164.09 15.998 166.067 16.8275 167.615 17.7207C171.379 19.89 173.261 22.8807 173.261 26.6929C173.261 29.7394 172.113 32.132 169.816 33.8706C167.519 35.6092 164.369 36.4785 160.365 36.4785C157.542 36.4785 154.982 35.9761 152.685 34.9712C150.404 33.9504 148.681 32.5627 147.517 30.8081C146.369 29.0376 145.794 27.0039 145.794 24.707H154.216C154.216 26.5732 154.695 27.953 155.652 28.8462C156.625 29.7235 158.196 30.1621 160.365 30.1621C161.753 30.1621 162.845 29.867 163.643 29.2769C164.456 28.6707 164.863 27.8254 164.863 26.7407Z" fill="black"/>
<path d="M206.088 19.2998C206.088 22.6973 205.458 25.7039 204.198 28.3198C202.938 30.9357 201.144 32.9535 198.815 34.373C196.502 35.7767 193.862 36.4785 190.895 36.4785C187.929 36.4785 185.297 35.8006 183 34.4448C180.703 33.0731 178.909 31.1191 177.617 28.583C176.341 26.0469 175.671 23.1359 175.607 19.8501V17.8882C175.607 14.4748 176.229 11.4681 177.473 8.86816C178.733 6.25228 180.528 4.23454 182.856 2.81494C185.201 1.39535 187.865 0.685547 190.848 0.685547C193.798 0.685547 196.43 1.38737 198.743 2.79102C201.056 4.19466 202.85 6.19645 204.126 8.79639C205.418 11.3804 206.072 14.3472 206.088 17.6968V19.2998ZM197.547 17.8403C197.547 14.3791 196.965 11.7552 195.8 9.96875C194.652 8.16634 193.001 7.26514 190.848 7.26514C186.637 7.26514 184.411 10.4233 184.172 16.7397L184.148 19.2998C184.148 22.7132 184.715 25.3371 185.847 27.1714C186.98 29.0057 188.662 29.9229 190.895 29.9229C193.017 29.9229 194.652 29.0216 195.8 27.2192C196.949 25.4168 197.531 22.8249 197.547 19.4434V17.8403Z" fill="black"/>
<path d="M227.977 1.16406L239.366 29.5879L250.754 1.16406H256.712V36H252.118V22.4341L252.549 7.7915L241.112 36H237.595L226.183 7.86328L226.637 22.4341V36H222.043V1.16406H227.977Z" fill="black"/>
<path d="M288.9 26.9082H274.305L271.027 36H266.29L279.593 1.16406H283.612L296.939 36H292.225L288.9 26.9082ZM275.693 23.1279H287.536L281.602 6.83447L275.693 23.1279Z" fill="black"/>
<path d="M326.997 4.94434H315.8V36H311.23V4.94434H300.057V1.16406H326.997V4.94434Z" fill="black"/>
<path d="M361.53 24.9463C361.099 28.6309 359.735 31.478 357.438 33.4878C355.158 35.4816 352.119 36.4785 348.323 36.4785C344.208 36.4785 340.906 35.0031 338.417 32.0522C335.945 29.1014 334.709 25.1536 334.709 20.209V16.8594C334.709 13.6214 335.283 10.7743 336.432 8.31787C337.596 5.86149 339.239 3.97933 341.36 2.67139C343.482 1.34749 345.938 0.685547 348.729 0.685547C352.43 0.685547 355.397 1.72233 357.63 3.7959C359.863 5.85352 361.163 8.70866 361.53 12.3613H356.912C356.513 9.58594 355.644 7.57617 354.304 6.33203C352.98 5.08789 351.122 4.46582 348.729 4.46582C345.795 4.46582 343.49 5.55046 341.815 7.71973C340.156 9.889 339.327 12.9754 339.327 16.979V20.3525C339.327 24.1328 340.116 27.1395 341.695 29.3726C343.274 31.6056 345.484 32.7222 348.323 32.7222C350.875 32.7222 352.829 32.1479 354.185 30.9995C355.556 29.8351 356.465 27.8174 356.912 24.9463H361.53Z" fill="black"/>
<path d="M399.005 36H394.388V19.8979H376.826V36H372.232V1.16406H376.826V16.1416H394.388V1.16406H399.005V36Z" fill="black"/>
</svg>
