<svg width="501" height="37" viewBox="0 0 501 37" fill="none" xmlns="http://www.w3.org/2000/svg">
<path d="M13.5757 23.7021H9.02979V36H0.631836V1.16406H14.3413C18.4725 1.16406 21.7025 2.08122 24.0312 3.91553C26.36 5.74984 27.5244 8.3418 27.5244 11.6914C27.5244 14.1159 27.0299 16.1257 26.041 17.7207C25.068 19.3158 23.5368 20.6077 21.4473 21.5967L28.7207 35.6411V36H19.7246L13.5757 23.7021ZM9.02979 17.2183H14.3413C15.9364 17.2183 17.1326 16.8035 17.9302 15.9741C18.7437 15.1287 19.1504 13.9564 19.1504 12.457C19.1504 10.9577 18.7437 9.78532 17.9302 8.93994C17.1167 8.07861 15.9204 7.64795 14.3413 7.64795H9.02979V17.2183Z" fill="black"/>
<path d="M53.2217 21.2378H40.0146V29.54H55.6142V36H31.6167V1.16406H55.6621V7.64795H40.0146V14.9932H53.2217V21.2378Z" fill="black"/>
<path d="M71.5737 26.5254L78.5122 1.16406H87.8911L76.1674 36H66.9799L55.352 1.16406H64.6591L71.5737 26.5254Z" fill="black"/>
<path d="M111.076 21.2378H97.8691V29.54H113.469V36H89.4711V1.16406H113.517V7.64795H97.8691V14.9932H111.076V21.2378Z" fill="black"/>
<path d="M128.854 23.7021H124.308V36H115.91V1.16406H129.62C133.751 1.16406 136.981 2.08122 139.309 3.91553C141.638 5.74984 142.803 8.3418 142.803 11.6914C142.803 14.1159 142.308 16.1257 141.319 17.7207C140.346 19.3158 138.815 20.6077 136.726 21.5967L143.999 35.6411V36H135.003L128.854 23.7021ZM124.308 17.2183H129.62C131.215 17.2183 132.411 16.8035 133.208 15.9741C134.022 15.1287 134.429 13.9564 134.429 12.457C134.429 10.9577 134.022 9.78532 133.208 8.93994C132.395 8.07861 131.199 7.64795 129.62 7.64795H124.308V17.2183Z" fill="black"/>
<path d="M164.863 26.7407C164.863 25.5125 164.425 24.5555 163.547 23.8696C162.686 23.1838 161.163 22.474 158.977 21.7402C156.792 21.0065 155.006 20.2967 153.618 19.6108C149.104 17.3937 146.847 14.3472 146.847 10.4712C146.847 8.54118 147.405 6.84245 148.522 5.375C149.654 3.8916 151.249 2.74316 153.307 1.92969C155.365 1.10026 157.677 0.685547 160.246 0.685547C162.75 0.685547 164.991 1.13216 166.969 2.02539C168.962 2.91862 170.51 4.19466 171.61 5.85352C172.711 7.49642 173.261 9.37858 173.261 11.5H164.887C164.887 10.0804 164.448 8.97982 163.571 8.19824C162.71 7.41667 161.538 7.02588 160.054 7.02588C158.555 7.02588 157.366 7.36084 156.489 8.03076C155.628 8.68473 155.197 9.52214 155.197 10.543C155.197 11.4362 155.676 12.2497 156.633 12.9834C157.59 13.7012 159.273 14.4508 161.681 15.2324C164.09 15.998 166.067 16.8275 167.615 17.7207C171.379 19.89 173.261 22.8807 173.261 26.6929C173.261 29.7394 172.113 32.132 169.816 33.8706C167.519 35.6092 164.369 36.4785 160.365 36.4785C157.542 36.4785 154.982 35.9761 152.685 34.9712C150.404 33.9504 148.681 32.5627 147.517 30.8081C146.369 29.0376 145.794 27.0039 145.794 24.707H154.216C154.216 26.5732 154.695 27.953 155.652 28.8462C156.625 29.7235 158.196 30.1621 160.365 30.1621C161.753 30.1621 162.845 29.867 163.643 29.2769C164.456 28.6707 164.863 27.8254 164.863 26.7407Z" fill="black"/>
<path d="M206.088 19.2998C206.088 22.6973 205.458 25.7039 204.198 28.3198C202.938 30.9357 201.144 32.9535 198.815 34.373C196.502 35.7767 193.862 36.4785 190.895 36.4785C187.929 36.4785 185.297 35.8006 183 34.4448C180.703 33.0731 178.909 31.1191 177.617 28.583C176.341 26.0469 175.671 23.1359 175.607 19.8501V17.8882C175.607 14.4748 176.229 11.4681 177.473 8.86816C178.733 6.25228 180.528 4.23454 182.856 2.81494C185.201 1.39535 187.865 0.685547 190.848 0.685547C193.798 0.685547 196.43 1.38737 198.743 2.79102C201.056 4.19466 202.85 6.19645 204.126 8.79639C205.418 11.3804 206.072 14.3472 206.088 17.6968V19.2998ZM197.547 17.8403C197.547 14.3791 196.965 11.7552 195.8 9.96875C194.652 8.16634 193.001 7.26514 190.848 7.26514C186.637 7.26514 184.411 10.4233 184.172 16.7397L184.148 19.2998C184.148 22.7132 184.715 25.3371 185.847 27.1714C186.98 29.0057 188.662 29.9229 190.895 29.9229C193.017 29.9229 194.652 29.0216 195.8 27.2192C196.949 25.4168 197.531 22.8249 197.547 19.4434V17.8403Z" fill="black"/>
<path d="M241.28 26.9082H226.685L223.407 36H218.67L231.973 1.16406H235.992L249.319 36H244.605L241.28 26.9082ZM228.073 23.1279H239.916L233.982 6.83447L228.073 23.1279Z" fill="black"/>
<path d="M263.347 36H258.753V1.16406H263.347V36Z" fill="black"/>
<path d="M288.955 21.9077H280.773V36H276.155V1.16406H287.687C291.611 1.16406 294.626 2.05729 296.731 3.84375C298.853 5.63021 299.913 8.23014 299.913 11.6436C299.913 13.8128 299.323 15.703 298.143 17.314C296.978 18.925 295.351 20.1292 293.262 20.9268L301.445 35.7129V36H296.516L288.955 21.9077ZM280.773 18.1514H287.831C290.112 18.1514 291.922 17.5612 293.262 16.3809C294.618 15.2005 295.296 13.6214 295.296 11.6436C295.296 9.49023 294.65 7.83936 293.358 6.69092C292.082 5.54248 290.231 4.96029 287.807 4.94434H280.773V18.1514Z" fill="black"/>
<path d="M337.612 20.4722C333.672 19.3397 330.801 17.952 328.998 16.3091C327.212 14.6502 326.319 12.6086 326.319 10.1841C326.319 7.44059 327.411 5.17562 329.597 3.38916C331.798 1.58675 334.653 0.685547 338.162 0.685547C340.555 0.685547 342.684 1.14811 344.55 2.07324C346.432 2.99837 347.884 4.27441 348.905 5.90137C349.941 7.52832 350.46 9.3068 350.46 11.2368H345.842C345.842 9.13135 345.172 7.48047 343.832 6.28418C342.493 5.07194 340.602 4.46582 338.162 4.46582C335.897 4.46582 334.127 4.96826 332.85 5.97314C331.59 6.96208 330.96 8.3418 330.96 10.1123C330.96 11.5319 331.558 12.7362 332.755 13.7251C333.967 14.6981 336.017 15.5913 338.904 16.4048C341.807 17.2183 344.072 18.1195 345.699 19.1084C347.342 20.0814 348.554 21.2218 349.335 22.5298C350.133 23.8377 350.532 25.377 350.532 27.1475C350.532 29.9707 349.431 32.2357 347.23 33.9424C345.029 35.6331 342.086 36.4785 338.401 36.4785C336.009 36.4785 333.776 36.0239 331.702 35.1147C329.628 34.1896 328.025 32.9295 326.893 31.3345C325.776 29.7394 325.218 27.929 325.218 25.9033H329.836C329.836 28.0088 330.609 29.6756 332.157 30.9038C333.72 32.116 335.801 32.7222 338.401 32.7222C340.826 32.7222 342.684 32.2277 343.976 31.2388C345.268 30.2498 345.914 28.902 345.914 27.1953C345.914 25.4886 345.316 24.1727 344.12 23.2476C342.923 22.3065 340.754 21.3813 337.612 20.4722Z" fill="black"/>
<path d="M380.542 19.8979H365.445V32.2437H382.983V36H360.851V1.16406H382.743V4.94434H365.445V16.1416H380.542V19.8979Z" fill="black"/>
<path d="M405.887 21.9077H397.705V36H393.087V1.16406H404.619C408.543 1.16406 411.558 2.05729 413.663 3.84375C415.785 5.63021 416.845 8.23014 416.845 11.6436C416.845 13.8128 416.255 15.703 415.075 17.314C413.91 18.925 412.283 20.1292 410.194 20.9268L418.376 35.7129V36H413.448L405.887 21.9077ZM397.705 18.1514H404.763C407.044 18.1514 408.854 17.5612 410.194 16.3809C411.55 15.2005 412.228 13.6214 412.228 11.6436C412.228 9.49023 411.582 7.83936 410.29 6.69092C409.014 5.54248 407.163 4.96029 404.739 4.94434H397.705V18.1514Z" fill="black"/>
<path d="M432.644 36H428.05V1.16406H432.644V36Z" fill="black"/>
<path d="M465.167 19.8979H450.07V32.2437H467.607V36H445.476V1.16406H467.368V4.94434H450.07V16.1416H465.167V19.8979Z" fill="black"/>
<path d="M488 20.4722C484.06 19.3397 481.189 17.952 479.386 16.3091C477.6 14.6502 476.707 12.6086 476.707 10.1841C476.707 7.44059 477.799 5.17562 479.984 3.38916C482.186 1.58675 485.041 0.685547 488.55 0.685547C490.942 0.685547 493.072 1.14811 494.938 2.07324C496.82 2.99837 498.272 4.27441 499.293 5.90137C500.329 7.52832 500.848 9.3068 500.848 11.2368H496.23C496.23 9.13135 495.56 7.48047 494.22 6.28418C492.88 5.07194 490.99 4.46582 488.55 4.46582C486.285 4.46582 484.514 4.96826 483.238 5.97314C481.978 6.96208 481.348 8.3418 481.348 10.1123C481.348 11.5319 481.946 12.7362 483.143 13.7251C484.355 14.6981 486.405 15.5913 489.292 16.4048C492.195 17.2183 494.46 18.1195 496.086 19.1084C497.729 20.0814 498.942 21.2218 499.723 22.5298C500.521 23.8377 500.919 25.377 500.919 27.1475C500.919 29.9707 499.819 32.2357 497.618 33.9424C495.417 35.6331 492.474 36.4785 488.789 36.4785C486.397 36.4785 484.163 36.0239 482.09 35.1147C480.016 34.1896 478.413 32.9295 477.281 31.3345C476.164 29.7394 475.606 27.929 475.606 25.9033H480.224C480.224 28.0088 480.997 29.6756 482.544 30.9038C484.108 32.116 486.189 32.7222 488.789 32.7222C491.214 32.7222 493.072 32.2277 494.364 31.2388C495.656 30.2498 496.302 28.902 496.302 27.1953C496.302 25.4886 495.704 24.1727 494.507 23.2476C493.311 22.3065 491.142 21.3813 488 20.4722Z" fill="black"/>
</svg>

