<svg width="301" height="76" viewBox="0 0 301 76" fill="none" xmlns="http://www.w3.org/2000/svg">
<path d="M12.9438 23.0166H8.39795V35.3145H0V0.478516H13.7095C17.8407 0.478516 21.0706 1.39567 23.3994 3.22998C25.7282 5.06429 26.8926 7.65625 26.8926 11.0059C26.8926 13.4303 26.3981 15.4401 25.4092 17.0352C24.4362 18.6302 22.9049 19.9222 20.8154 20.9111L28.0889 34.9556V35.3145H19.0928L12.9438 23.0166ZM8.39795 16.5327H13.7095C15.3045 16.5327 16.5008 16.118 17.2983 15.2886C18.1118 14.4432 18.5186 13.2708 18.5186 11.7715C18.5186 10.2721 18.1118 9.09977 17.2983 8.25439C16.4849 7.39307 15.2886 6.9624 13.7095 6.9624H8.39795V16.5327Z" fill="black"/>
<path d="M52.5898 20.5522H39.3828V28.8545H54.9824V35.3145H30.9848V0.478516H55.0303V6.9624H39.3828V14.3076H52.5898V20.5522Z" fill="black"/>
<path d="M70.9419 25.8398L77.8803 0.478516H87.2592L75.5356 35.3145H66.3481L54.7202 0.478516H64.0273L70.9419 25.8398Z" fill="black"/>
<path d="M110.444 20.5522H97.2372V28.8545H112.837V35.3145H88.8393V0.478516H112.885V6.9624H97.2372V14.3076H110.444V20.5522Z" fill="black"/>
<path d="M128.222 23.0166H123.676V35.3145H115.278V0.478516H128.988C133.119 0.478516 136.349 1.39567 138.678 3.22998C141.006 5.06429 142.171 7.65625 142.171 11.0059C142.171 13.4303 141.676 15.4401 140.687 17.0352C139.714 18.6302 138.183 19.9222 136.094 20.9111L143.367 34.9556V35.3145H134.371L128.222 23.0166ZM123.676 16.5327H128.988C130.583 16.5327 131.779 16.118 132.577 15.2886C133.39 14.4432 133.797 13.2708 133.797 11.7715C133.797 10.2721 133.39 9.09977 132.577 8.25439C131.763 7.39307 130.567 6.9624 128.988 6.9624H123.676V16.5327Z" fill="black"/>
<path d="M164.231 26.0552C164.231 24.827 163.793 23.87 162.915 23.1841C162.054 22.4982 160.531 21.7884 158.346 21.0547C156.16 20.321 154.374 19.6112 152.986 18.9253C148.472 16.7082 146.215 13.6616 146.215 9.78564C146.215 7.85563 146.774 6.1569 147.89 4.68945C149.023 3.20605 150.618 2.05762 152.675 1.24414C154.733 0.414714 157.046 0 159.614 0C162.118 0 164.359 0.446615 166.337 1.33984C168.331 2.23307 169.878 3.50911 170.978 5.16797C172.079 6.81087 172.629 8.69303 172.629 10.8145H164.255C164.255 9.39486 163.817 8.29427 162.939 7.5127C162.078 6.73112 160.906 6.34033 159.422 6.34033C157.923 6.34033 156.735 6.67529 155.857 7.34521C154.996 7.99919 154.565 8.83659 154.565 9.85742C154.565 10.7507 155.044 11.5641 156.001 12.2979C156.958 13.0156 158.641 13.7653 161.049 14.5469C163.458 15.3125 165.436 16.1419 166.983 17.0352C170.747 19.2044 172.629 22.1951 172.629 26.0073C172.629 29.0539 171.481 31.4465 169.184 33.1851C166.887 34.9237 163.737 35.793 159.733 35.793C156.91 35.793 154.35 35.2905 152.053 34.2856C149.772 33.2648 148.05 31.8771 146.885 30.1226C145.737 28.3521 145.163 26.3184 145.163 24.0215H153.584C153.584 25.8877 154.063 27.2674 155.02 28.1606C155.993 29.0379 157.564 29.4766 159.733 29.4766C161.121 29.4766 162.214 29.1815 163.011 28.5913C163.825 27.9852 164.231 27.1398 164.231 26.0552Z" fill="black"/>
<path d="M205.456 18.6143C205.456 22.0117 204.826 25.0184 203.566 27.6343C202.306 30.2502 200.512 32.2679 198.183 33.6875C195.87 35.0911 193.23 35.793 190.264 35.793C187.297 35.793 184.665 35.1151 182.368 33.7593C180.071 32.3875 178.277 30.4336 176.985 27.8975C175.709 25.3613 175.039 22.4504 174.975 19.1646V17.2026C174.975 13.7892 175.597 10.7826 176.841 8.18262C178.101 5.56673 179.896 3.54899 182.224 2.12939C184.569 0.709798 187.233 0 190.216 0C193.167 0 195.798 0.701823 198.111 2.10547C200.424 3.50911 202.218 5.51091 203.495 8.11084C204.786 10.6948 205.44 13.6616 205.456 17.0112V18.6143ZM196.915 17.1548C196.915 13.6935 196.333 11.0697 195.168 9.2832C194.02 7.48079 192.369 6.57959 190.216 6.57959C186.005 6.57959 183.78 9.73779 183.54 16.0542L183.516 18.6143C183.516 22.0277 184.083 24.6515 185.215 26.4858C186.348 28.3201 188.03 29.2373 190.264 29.2373C192.385 29.2373 194.02 28.3361 195.168 26.5337C196.317 24.7313 196.899 22.1393 196.915 18.7578V17.1548Z" fill="black"/>
<path d="M240.648 26.2227H226.053L222.775 35.3145H218.038L231.341 0.478516H235.36L248.687 35.3145H243.974L240.648 26.2227ZM227.441 22.4424H239.284L233.351 6.14893L227.441 22.4424Z" fill="black"/>
<path d="M262.715 35.3145H258.121V0.478516H262.715V35.3145Z" fill="black"/>
<path d="M288.323 21.2222H280.141V35.3145H275.523V0.478516H287.055C290.979 0.478516 293.994 1.37174 296.099 3.1582C298.221 4.94466 299.281 7.5446 299.281 10.958C299.281 13.1273 298.691 15.0174 297.511 16.6284C296.347 18.2394 294.72 19.4437 292.63 20.2412L300.813 35.0273V35.3145H295.884L288.323 21.2222ZM280.141 17.4658H287.199C289.48 17.4658 291.29 16.8757 292.63 15.6953C293.986 14.515 294.664 12.9359 294.664 10.958C294.664 8.80469 294.018 7.15381 292.726 6.00537C291.45 4.85693 289.599 4.27474 287.175 4.25879H280.141V17.4658Z" fill="black"/>
<path d="M13.8994 69.9004C13.6885 71.7051 13.0205 73.0996 11.8955 74.084C10.7783 75.0605 9.29004 75.5488 7.43066 75.5488C5.41504 75.5488 3.79785 74.8262 2.5791 73.3809C1.36816 71.9355 0.762695 70.002 0.762695 67.5801V65.9395C0.762695 64.3535 1.04395 62.959 1.60645 61.7559C2.17676 60.5527 2.98145 59.6309 4.02051 58.9902C5.05957 58.3418 6.2627 58.0176 7.62988 58.0176C9.44238 58.0176 10.8955 58.5254 11.9893 59.541C13.083 60.5488 13.7197 61.9473 13.8994 63.7363H11.6377C11.4424 62.377 11.0166 61.3926 10.3604 60.7832C9.71191 60.1738 8.80176 59.8691 7.62988 59.8691C6.19238 59.8691 5.06348 60.4004 4.24316 61.4629C3.43066 62.5254 3.02441 64.0371 3.02441 65.998V67.6504C3.02441 69.502 3.41113 70.9746 4.18457 72.0684C4.95801 73.1621 6.04004 73.709 7.43066 73.709C8.68066 73.709 9.6377 73.4277 10.3018 72.8652C10.9736 72.2949 11.4189 71.3066 11.6377 69.9004H13.8994Z" fill="black"/>
<path d="M33.2264 67.334C33.2264 69.0059 32.9452 70.4668 32.3827 71.7168C31.8202 72.959 31.0233 73.9082 29.9921 74.5645C28.9608 75.2207 27.7577 75.5488 26.3827 75.5488C25.0389 75.5488 23.8475 75.2207 22.8085 74.5645C21.7694 73.9004 20.9608 72.959 20.3827 71.7402C19.8124 70.5137 19.5194 69.0957 19.5038 67.4863V66.2559C19.5038 64.6152 19.7889 63.166 20.3593 61.9082C20.9296 60.6504 21.7343 59.6895 22.7733 59.0254C23.8202 58.3535 25.0155 58.0176 26.3593 58.0176C27.7264 58.0176 28.9296 58.3496 29.9686 59.0137C31.0155 59.6699 31.8202 60.627 32.3827 61.8848C32.9452 63.1348 33.2264 64.5918 33.2264 66.2559V67.334ZM30.9882 66.2324C30.9882 64.209 30.5819 62.6582 29.7694 61.5801C28.9569 60.4941 27.8202 59.9512 26.3593 59.9512C24.9374 59.9512 23.8163 60.4941 22.996 61.5801C22.1835 62.6582 21.7655 64.1582 21.7421 66.0801V67.334C21.7421 69.2949 22.1522 70.8379 22.9725 71.9629C23.8007 73.0801 24.9374 73.6387 26.3827 73.6387C27.8358 73.6387 28.9608 73.1113 29.7577 72.0566C30.5546 70.9941 30.9647 69.4746 30.9882 67.498V66.2324Z" fill="black"/>
<path d="M39.7214 75.3145V58.252H45.2996C47.1511 58.252 48.5418 58.6348 49.4714 59.4004C50.4089 60.166 50.8777 61.2988 50.8777 62.7988C50.8777 63.5957 50.6511 64.3027 50.198 64.9199C49.7449 65.5293 49.1277 66.002 48.3464 66.3379C49.2683 66.5957 49.9949 67.0879 50.5261 67.8145C51.0652 68.5332 51.3347 69.3926 51.3347 70.3926C51.3347 71.9238 50.8386 73.127 49.8464 74.002C48.8543 74.877 47.4519 75.3145 45.6394 75.3145H39.7214ZM41.9714 67.334V73.4746H45.6863C46.7332 73.4746 47.5574 73.2051 48.1589 72.666C48.7683 72.1191 49.073 71.3691 49.073 70.416C49.073 68.3613 47.9558 67.334 45.7214 67.334H41.9714ZM41.9714 65.5293H45.3699C46.3543 65.5293 47.1394 65.2832 47.7253 64.791C48.3191 64.2988 48.616 63.6309 48.616 62.7871C48.616 61.8496 48.3425 61.1699 47.7957 60.748C47.2488 60.3184 46.4168 60.1035 45.2996 60.1035H41.9714V65.5293Z" fill="black"/>
<path d="M67.2164 70.8613H60.068L58.4625 75.3145H56.1422L62.6579 58.252H64.6266L71.1539 75.3145H68.8454L67.2164 70.8613ZM60.7477 69.0098H66.5485L63.6422 61.0293L60.7477 69.0098Z" fill="black"/>
<path d="M78.8325 73.4746H86.9185V75.3145H76.5708V58.252H78.8325V73.4746Z" fill="black"/>
<path d="M101.16 60.1035H95.6752V75.3145H93.4369V60.1035H87.9643V58.252H101.16V60.1035Z" fill="black"/>
<path d="M115.415 75.3145V58.252H120.993C122.845 58.252 124.236 58.6348 125.165 59.4004C126.103 60.166 126.571 61.2988 126.571 62.7988C126.571 63.5957 126.345 64.3027 125.892 64.9199C125.439 65.5293 124.821 66.002 124.04 66.3379C124.962 66.5957 125.689 67.0879 126.22 67.8145C126.759 68.5332 127.028 69.3926 127.028 70.3926C127.028 71.9238 126.532 73.127 125.54 74.002C124.548 74.877 123.146 75.3145 121.333 75.3145H115.415ZM117.665 67.334V73.4746H121.38C122.427 73.4746 123.251 73.2051 123.853 72.666C124.462 72.1191 124.767 71.3691 124.767 70.416C124.767 68.3613 123.65 67.334 121.415 67.334H117.665ZM117.665 65.5293H121.064C122.048 65.5293 122.833 65.2832 123.419 64.791C124.013 64.2988 124.31 63.6309 124.31 62.7871C124.31 61.8496 124.036 61.1699 123.489 60.748C122.943 60.3184 122.111 60.1035 120.993 60.1035H117.665V65.5293Z" fill="black"/>
<path d="M135.75 73.4746H143.836V75.3145H133.488V58.252H135.75V73.4746Z" fill="black"/>
<path d="M160.901 58.252V69.8535C160.893 71.4629 160.386 72.7793 159.378 73.8027C158.378 74.8262 157.018 75.4004 155.3 75.5254L154.702 75.5488C152.835 75.5488 151.347 75.0449 150.237 74.0371C149.128 73.0293 148.565 71.6426 148.55 69.877V58.252H150.776V69.8066C150.776 71.041 151.116 72.002 151.796 72.6895C152.476 73.3691 153.444 73.709 154.702 73.709C155.976 73.709 156.948 73.3691 157.62 72.6895C158.3 72.0098 158.64 71.0527 158.64 69.8184V58.252H160.901Z" fill="black"/>
<path d="M177.217 67.4277H169.822V73.4746H178.412V75.3145H167.572V58.252H178.295V60.1035H169.822V65.5879H177.217V67.4277Z" fill="black"/>
<path d="M203.05 67.4277H195.656V73.4746H204.246V75.3145H193.406V58.252H204.128V60.1035H195.656V65.5879H203.05V67.4277Z" fill="black"/>
<path d="M210.166 75.3145V58.252H214.983C216.467 58.252 217.78 58.5801 218.92 59.2363C220.061 59.8926 220.94 60.8262 221.557 62.0371C222.182 63.248 222.498 64.6387 222.506 66.209V67.2988C222.506 68.9082 222.194 70.3184 221.569 71.5293C220.952 72.7402 220.065 73.6699 218.909 74.3184C217.76 74.9668 216.42 75.2988 214.889 75.3145H210.166ZM212.416 60.1035V73.4746H214.784C216.518 73.4746 217.866 72.9355 218.827 71.8574C219.795 70.7793 220.28 69.2441 220.28 67.252V66.2559C220.28 64.3184 219.823 62.8145 218.909 61.7441C218.002 60.666 216.713 60.1191 215.041 60.1035H212.416Z" fill="black"/>
<path d="M231.451 75.3145H229.201V58.252H231.451V75.3145Z" fill="black"/>
<path d="M250.133 60.1035H244.649V75.3145H242.41V60.1035H236.938V58.252H250.133V60.1035Z" fill="black"/>
<path d="M258.198 75.3145H255.948V58.252H258.198V75.3145Z" fill="black"/>
<path d="M278.568 67.334C278.568 69.0059 278.287 70.4668 277.725 71.7168C277.162 72.959 276.365 73.9082 275.334 74.5645C274.303 75.2207 273.1 75.5488 271.725 75.5488C270.381 75.5488 269.189 75.2207 268.15 74.5645C267.111 73.9004 266.303 72.959 265.725 71.7402C265.154 70.5137 264.861 69.0957 264.846 67.4863V66.2559C264.846 64.6152 265.131 63.166 265.701 61.9082C266.271 60.6504 267.076 59.6895 268.115 59.0254C269.162 58.3535 270.357 58.0176 271.701 58.0176C273.068 58.0176 274.271 58.3496 275.311 59.0137C276.357 59.6699 277.162 60.627 277.725 61.8848C278.287 63.1348 278.568 64.5918 278.568 66.2559V67.334ZM276.33 66.2324C276.33 64.209 275.924 62.6582 275.111 61.5801C274.299 60.4941 273.162 59.9512 271.701 59.9512C270.279 59.9512 269.158 60.4941 268.338 61.5801C267.525 62.6582 267.107 64.1582 267.084 66.0801V67.334C267.084 69.2949 267.494 70.8379 268.314 71.9629C269.143 73.0801 270.279 73.6387 271.725 73.6387C273.178 73.6387 274.303 73.1113 275.1 72.0566C275.896 70.9941 276.307 69.4746 276.33 67.498V66.2324Z" fill="black"/>
<path d="M298.177 75.3145H295.915L287.325 62.166V75.3145H285.063V58.252H287.325L295.938 71.459V58.252H298.177V75.3145Z" fill="black"/>
</svg>
