<svg width="1379" height="848" viewBox="0 0 1379 848" fill="none" xmlns="http://www.w3.org/2000/svg">
<g clip-path="url(#clip0)">
<path fill-rule="evenodd" clip-rule="evenodd" d="M766.607 40.2795C799.585 14.1311 840.453 -0.0676781 882.54 0.000267795C985.815 0.000267795 1069.5 83.6926 1069.5 186.968C1069.5 290.243 985.815 373.935 882.54 373.935C840.453 374.005 799.585 359.806 766.607 333.656C733.629 359.806 692.761 374.005 650.674 373.935C608.59 374 567.725 359.802 534.748 333.656C501.773 359.807 460.906 374.006 418.821 373.935C376.736 374.001 335.871 359.803 302.894 333.656C269.916 359.801 229.052 374 186.968 373.935C83.6863 373.935 0 290.237 0 186.968C0 83.6866 83.6924 0.000267795 186.968 0.000267795C229.052 -0.0658208 269.917 14.1328 302.894 40.2795C335.872 14.1337 376.736 -0.0648596 418.821 0.000267795C460.907 -0.07111 501.773 14.1281 534.748 40.2795C567.725 14.1337 608.59 -0.0648596 650.674 0.000267795C692.762 -0.0696013 733.63 14.1294 766.607 40.2795ZM186.968 331.1C218.715 331.1 248.479 320.493 272.303 303.114C246.129 270.056 231.879 229.132 231.859 186.968C231.772 144.787 246.034 103.831 272.303 70.8281C248.46 53.4422 218.715 42.8293 186.968 42.8293C107.298 42.8293 42.829 107.298 42.829 186.968C42.829 266.638 107.298 331.1 186.968 331.1ZM274.695 186.968C274.634 217.806 284.527 247.841 302.9 272.607C321.272 247.84 331.164 217.806 331.106 186.968C331.18 156.127 321.286 126.089 302.9 101.328C284.511 126.087 274.617 156.127 274.695 186.968ZM418.724 331.058C449.461 331.132 479.41 321.337 504.162 303.114C477.987 270.059 463.737 229.137 463.719 186.974C463.631 144.793 477.893 103.837 504.162 70.8342C480.247 53.2292 450.702 42.884 418.724 42.884C388.049 42.82 358.166 52.6187 333.485 70.8342C359.755 103.837 374.017 144.793 373.929 186.974C373.912 229.137 359.662 270.06 333.485 303.114C358.169 321.324 388.05 331.12 418.724 331.058ZM506.542 186.968C506.482 217.806 516.374 247.841 534.748 272.607C553.124 247.841 563.018 217.807 562.959 186.968C563.034 156.126 553.138 126.087 534.748 101.328C516.361 126.088 506.467 156.127 506.542 186.968ZM650.583 331.058C682.556 331.058 712.1 320.725 736.016 303.114C709.844 270.058 695.593 229.136 695.572 186.974C695.488 144.794 709.75 103.838 736.016 70.8342C712.1 53.2292 682.556 42.884 650.583 42.884C618.61 42.884 589.254 53.2353 565.339 70.8342C591.608 103.837 605.87 144.793 605.782 186.974C605.768 229.138 591.517 270.061 565.339 303.114C589.254 320.706 618.61 331.058 650.583 331.058ZM738.407 186.968C738.347 217.806 748.239 247.841 766.613 272.607C784.983 247.838 794.874 217.805 794.819 186.968C794.892 156.127 784.999 126.089 766.613 101.328C748.221 126.086 738.327 156.126 738.407 186.968ZM797.204 303.114C821.023 320.493 850.78 331.1 882.54 331.1C962.198 331.1 1026.68 266.632 1026.68 186.974C1026.68 107.304 962.198 42.8353 882.54 42.8353C850.786 42.8353 821.047 53.4543 797.204 70.8342C823.47 103.838 837.732 144.794 837.648 186.974C837.628 229.137 823.378 270.058 797.204 303.114Z" fill="black"/>
<path d="M531 495.659V592.798H490.926V495.659H531Z" fill="black"/>
<path d="M318.842 497.129V552.464C318.842 566.486 314.177 574.6 307.78 580.754C295.49 592.803 278.281 596 255.911 596C237.474 596 217.56 592.557 205.761 580.995C198.882 574.605 194.699 565.262 194.699 552.714V497.133H234.032V538.945C234.032 540.2 234.004 541.427 233.976 542.627C233.922 544.947 233.871 547.163 234.032 549.271L234.032 549.271C234.278 552.223 234.524 555.174 235.26 557.872C237.72 565.986 243.867 571.149 257.139 571.149C266.724 571.149 276.067 567.223 278.772 558.368C279.509 555.17 280 551.723 280 539.428V497.129H318.842Z" fill="black"/>
<path fill-rule="evenodd" clip-rule="evenodd" d="M113.818 460.004L202.319 592.798H156.102L143.562 572.39C143.198 571.8 143.026 571.112 143.071 570.42C142.58 570.662 141.598 570.908 140.37 570.908H60.4756C59.7235 570.908 58.9699 570.725 58.3859 570.583C58.0166 570.493 57.7151 570.42 57.5249 570.42C57.5249 570.907 57.2793 571.894 56.7882 572.877L44.7397 592.798H0L77.1895 476.97C77.4272 476.732 77.8951 476.498 78.3703 476.261L78.4173 476.237C78.3628 476.209 78.3083 476.18 78.254 476.152C77.8227 475.929 77.4076 475.714 77.1895 475.496L64.163 460.004H113.818ZM122.179 545.091C124.155 545.076 126.129 545.239 128.076 545.578L128.021 545.523C127.268 544.765 125.842 543.331 124.88 541.897L104.475 508.695C101.769 504.019 100.542 501.067 100.05 499.839C99.5594 501.067 98.3316 504.019 95.6264 508.441L75.7162 541.398C74.2888 543.306 72.8575 544.745 72.0998 545.506L72.0289 545.578C73.2566 545.336 75.7162 545.091 77.9303 545.091H122.179Z" fill="black"/>
<path fill-rule="evenodd" clip-rule="evenodd" d="M461.922 502.05C475.685 519.511 480.113 532.055 480.113 542.88C480.113 558.126 473.97 569.679 464.873 578.044C449.378 592.062 422.089 595.996 404.638 595.996C392.835 595.996 360.64 594.272 342.935 576.57C335.069 568.455 328.922 557.876 328.922 544.108C328.922 526.152 338.757 512.621 353.51 504.515C367.269 496.887 382.764 493.69 398.004 493.69C404.397 493.69 412.508 495.16 418.897 498.852C418.897 498.852 413.245 494.431 408.817 489.51L382.514 460H428.731L461.922 502.05ZM426.763 565.991C435.12 561.811 441.762 554.192 441.762 544.108C441.762 534.512 434.391 525.656 423.325 520.989C417.178 518.524 409.312 517.791 403.898 517.791C398.25 517.791 391.121 518.778 385.219 521.476C375.626 525.656 367.515 534.024 367.515 544.595C367.515 553.451 373.912 561.565 382.269 565.745C389.152 569.188 397.513 570.666 404.638 570.666C411.763 570.666 419.879 569.683 426.763 565.991Z" fill="black"/>
<path d="M45.3032 848V734.783H5.23999V725.624H96.0115V734.783H55.9482V848H45.3032ZM159.098 848L158.603 839.707C154.697 842.705 150.254 845.126 145.276 846.969C140.297 848.784 135.043 849.692 129.514 849.692C123.518 849.692 118.292 848.743 113.836 846.845C109.38 844.947 105.941 842.224 103.521 838.675C101.128 835.099 99.9312 830.891 99.9312 826.05C99.9312 820.136 101.623 815.185 105.006 811.196C108.417 807.18 113.588 804.141 120.52 802.078C127.451 800.015 136.198 798.983 146.761 798.983C150.364 798.983 154.188 799.038 158.231 799.148V791.227C158.231 785.89 157.434 781.558 155.838 778.23C154.27 774.874 151.808 772.398 148.453 770.803C145.097 769.208 140.696 768.41 135.25 768.41C129.336 768.41 124.013 769.084 119.282 770.432C114.578 771.752 110.164 773.389 106.038 775.342V766.553C110.219 764.463 114.798 762.785 119.777 761.52C124.756 760.254 130.147 759.622 135.951 759.622C142.442 759.622 148.095 760.584 152.909 762.51C157.75 764.408 161.559 767.543 164.338 771.917C167.143 776.263 168.546 781.957 168.546 788.999V848H159.098ZM158.231 807.607H146.761C138.151 807.607 131.179 808.294 125.842 809.67C120.534 811.045 116.655 813.067 114.207 815.735C111.786 818.375 110.576 821.69 110.576 825.678C110.576 828.704 111.291 831.359 112.722 833.642C114.152 835.925 116.394 837.713 119.447 839.005C122.5 840.271 126.365 840.903 131.041 840.903C135.827 840.903 140.517 840.092 145.111 838.469C149.704 836.819 154.078 834.412 158.231 831.249V807.607ZM233.159 846.803C228.428 848.151 224.096 848.825 220.162 848.825C214.221 848.825 209.723 847.422 206.67 844.617C203.617 841.811 202.09 837.025 202.09 830.258V720.92H212.364V829.227C212.364 832.858 212.969 835.567 214.179 837.355C215.39 839.143 217.604 840.037 220.822 840.037C224.921 840.037 229.033 839.597 233.159 838.717V846.803ZM317.783 842.76C314.262 844.74 309.916 846.391 304.745 847.711C299.573 849.031 293.728 849.692 287.209 849.692C278.16 849.692 270.719 847.89 264.888 844.287C259.084 840.656 254.82 835.485 252.097 828.773C249.374 822.034 248.012 813.906 248.012 804.388C248.012 795.669 249.457 787.94 252.345 781.2C255.233 774.434 259.524 769.153 265.218 765.357C270.912 761.533 277.788 759.622 285.848 759.622C293.66 759.622 300.275 761.396 305.694 764.944C311.14 768.465 315.225 773.306 317.948 779.468C320.671 785.629 322.032 792.643 322.032 800.51C322.032 802.353 321.909 804.045 321.661 805.585H258.823C258.988 813.699 260.06 820.342 262.041 825.513C264.049 830.657 267.171 834.508 271.407 837.066C275.67 839.624 281.268 840.903 288.199 840.903C293.948 840.903 298.927 840.408 303.135 839.418C307.344 838.4 312.226 836.75 317.783 834.467V842.76ZM311.387 796.962C311.14 791.185 309.985 786.152 307.922 781.861C305.859 777.57 302.929 774.255 299.133 771.917C295.365 769.579 290.881 768.41 285.683 768.41C280.621 768.41 276.138 769.593 272.232 771.958C268.354 774.296 265.273 777.625 262.99 781.943C260.707 786.234 259.373 791.24 258.988 796.962H311.387ZM411.112 848V788.668C411.112 783.662 410.287 779.674 408.637 776.703C407.014 773.732 404.648 771.614 401.54 770.349C398.432 769.056 394.526 768.41 389.822 768.41C384.293 768.41 379.177 769.221 374.474 770.844C369.77 772.467 365.204 774.97 360.775 778.354V848H350.46V761.313H359.909L360.61 769.771C364.571 766.691 369.082 764.229 374.144 762.386C379.232 760.543 384.624 759.622 390.317 759.622C396.809 759.622 402.365 760.557 406.986 762.427C411.607 764.298 415.17 767.241 417.673 771.257C420.176 775.245 421.427 780.375 421.427 786.647V848H411.112ZM503.41 845.978C501.292 846.996 498.473 847.862 494.952 848.578C491.459 849.32 487.924 849.692 484.348 849.692C479.287 849.692 474.969 849.045 471.393 847.752C467.844 846.432 465.025 844.08 462.935 840.697C460.872 837.286 459.84 832.569 459.84 826.545V769.937H442.098V761.313H459.84L460.335 735.608H470.155V761.313H505.102V769.937H470.155V825.348C470.155 829.612 470.788 832.885 472.053 835.168C473.318 837.424 475.051 838.95 477.252 839.748C479.48 840.518 482.285 840.903 485.669 840.903C488.969 840.903 492.119 840.587 495.117 839.954C498.115 839.294 500.88 838.428 503.41 837.355V845.978ZM520.451 834.838C524.164 836.544 528.634 837.988 533.86 839.17C539.114 840.326 544.216 840.903 549.167 840.903C554.806 840.903 559.427 840.271 563.031 839.005C566.662 837.713 569.316 835.897 570.994 833.559C572.672 831.221 573.511 828.429 573.511 825.183C573.511 821.855 572.644 819.187 570.911 817.179C569.178 815.171 566.799 813.589 563.773 812.434C560.775 811.279 556.594 810.069 551.23 808.803C544.381 807.18 538.839 805.42 534.603 803.522C530.367 801.597 527.094 799.052 524.783 795.889C522.472 792.698 521.317 788.6 521.317 783.594C521.317 778.972 522.431 774.874 524.659 771.298C526.915 767.695 530.422 764.848 535.18 762.757C539.939 760.667 545.963 759.622 553.252 759.622C557.791 759.622 562.302 760.13 566.785 761.148C571.296 762.138 575.175 763.486 578.421 765.192V773.98C574.79 772.302 570.76 770.954 566.332 769.937C561.903 768.919 557.488 768.41 553.087 768.41C548.081 768.41 543.983 769.001 540.792 770.184C537.601 771.367 535.263 773.031 533.778 775.177C532.32 777.322 531.591 779.908 531.591 782.933C531.591 786.262 532.457 788.944 534.19 790.979C535.923 792.987 538.302 794.569 541.328 795.724C544.354 796.879 548.549 798.076 553.912 799.313C560.761 800.936 566.304 802.711 570.54 804.636C574.776 806.534 578.049 809.078 580.36 812.269C582.67 815.432 583.826 819.517 583.826 824.523C583.826 829.529 582.547 833.917 579.989 837.685C577.43 841.453 573.524 844.397 568.271 846.515C563.045 848.633 556.567 849.692 548.837 849.692C543.474 849.692 538.302 849.155 533.324 848.083C528.373 847.037 524.082 845.607 520.451 843.792V834.838ZM734.383 848L721.716 813.507H665.272L652.564 848H641.424L687.718 725.624H700.054L746.224 848H734.383ZM697.208 746.418C695.777 742.513 694.594 738.964 693.659 735.773C692.504 739.597 691.321 743.145 690.111 746.418L668.656 804.553H718.498L697.208 746.418ZM838.729 848L818.8 786.647C817.782 783.896 816.6 779.839 815.252 774.475C814.509 777.308 813.326 781.365 811.703 786.647L791.734 848H779.603L750.185 761.313H761.325L782.78 827.37C783.55 829.708 784.733 833.765 786.329 839.542C786.934 836.599 788.007 832.541 789.547 827.37L811.002 761.313H819.955L841.452 827.37C842.992 832.541 844.051 836.599 844.629 839.542C846.444 833.188 847.641 829.131 848.218 827.37L869.137 761.313H880.318L850.9 848H838.729ZM953.926 848L953.431 839.707C949.525 842.705 945.082 845.126 940.104 846.969C935.125 848.784 929.871 849.692 924.343 849.692C918.346 849.692 913.12 848.743 908.664 846.845C904.208 844.947 900.769 842.224 898.349 838.675C895.956 835.099 894.759 830.891 894.759 826.05C894.759 820.136 896.451 815.185 899.834 811.196C903.245 807.18 908.416 804.141 915.348 802.078C922.28 800.015 931.027 798.983 941.589 798.983C945.192 798.983 949.016 799.038 953.059 799.148V791.227C953.059 785.89 952.262 781.558 950.666 778.23C949.098 774.874 946.637 772.398 943.281 770.803C939.925 769.208 935.524 768.41 930.078 768.41C924.164 768.41 918.841 769.084 914.11 770.432C909.406 771.752 904.992 773.389 900.866 775.342V766.553C905.047 764.463 909.627 762.785 914.605 761.52C919.584 760.254 924.975 759.622 930.779 759.622C937.271 759.622 942.923 760.584 947.737 762.51C952.578 764.408 956.388 767.543 959.166 771.917C961.971 776.263 963.374 781.957 963.374 788.999V848H953.926ZM953.059 807.607H941.589C932.98 807.607 926.007 808.294 920.67 809.67C915.362 811.045 911.483 813.067 909.035 815.735C906.615 818.375 905.404 821.69 905.404 825.678C905.404 828.704 906.119 831.359 907.55 833.642C908.98 835.925 911.222 837.713 914.275 839.005C917.328 840.271 921.193 840.903 925.869 840.903C930.655 840.903 935.345 840.092 939.939 838.469C944.532 836.819 948.906 834.412 953.059 831.249V807.607ZM997.249 848V761.313H1006.7L1007.4 774.475C1009.16 771.724 1011.28 769.249 1013.75 767.048C1016.23 764.82 1019.16 763.032 1022.54 761.685C1025.95 760.309 1029.75 759.622 1033.93 759.622C1036.49 759.622 1038.81 759.842 1040.9 760.282C1043.02 760.722 1044.92 761.286 1046.6 761.973V771.793C1044.53 771.161 1042.26 770.638 1039.79 770.225C1037.34 769.785 1035.1 769.565 1033.06 769.565C1029.02 769.565 1025.47 770.28 1022.42 771.711C1019.39 773.114 1016.7 775.204 1014.33 777.982C1011.99 780.76 1009.74 784.322 1007.56 788.668V848H997.249ZM1124.74 848L1124.08 839.542C1119.85 842.815 1115.46 845.332 1110.92 847.092C1106.41 848.825 1101.66 849.692 1096.68 849.692C1088.68 849.692 1081.79 848 1076.01 844.617C1070.26 841.233 1065.85 836.227 1062.77 829.598C1059.72 822.942 1058.19 814.827 1058.19 805.255C1058.19 795.435 1059.81 787.114 1063.06 780.293C1066.3 773.444 1070.84 768.286 1076.67 764.82C1082.5 761.354 1089.3 759.622 1097.06 759.622C1102.14 759.622 1106.96 760.364 1111.5 761.85C1116.04 763.307 1120.18 765.315 1123.92 767.874V720.92H1134.23V848H1124.74ZM1123.92 777.033C1119.98 774.228 1115.83 772.096 1111.46 770.638C1107.08 769.153 1102.56 768.41 1097.88 768.41C1091.66 768.41 1086.41 769.758 1082.12 772.453C1077.83 775.149 1074.57 779.206 1072.34 784.625C1070.11 790.044 1069 796.81 1069 804.925C1069 812.874 1070.09 819.517 1072.26 824.853C1074.46 830.19 1077.69 834.205 1081.95 836.901C1086.25 839.569 1091.5 840.903 1097.72 840.903C1102.36 840.903 1106.79 840.078 1111 838.428C1115.24 836.75 1119.54 834.247 1123.92 830.918V777.033ZM1162.29 834.838C1166 836.544 1170.47 837.988 1175.7 839.17C1180.95 840.326 1186.05 840.903 1191 840.903C1196.64 840.903 1201.26 840.271 1204.87 839.005C1208.5 837.713 1211.15 835.897 1212.83 833.559C1214.51 831.221 1215.35 828.429 1215.35 825.183C1215.35 821.855 1214.48 819.187 1212.75 817.179C1211.02 815.171 1208.64 813.589 1205.61 812.434C1202.61 811.279 1198.43 810.069 1193.07 808.803C1186.22 807.18 1180.68 805.42 1176.44 803.522C1172.2 801.597 1168.93 799.052 1166.62 795.889C1164.31 792.698 1163.15 788.6 1163.15 783.594C1163.15 778.972 1164.27 774.874 1166.5 771.298C1168.75 767.695 1172.26 764.848 1177.02 762.757C1181.78 760.667 1187.8 759.622 1195.09 759.622C1199.63 759.622 1204.14 760.13 1208.62 761.148C1213.13 762.138 1217.01 763.486 1220.26 765.192V773.98C1216.63 772.302 1212.6 770.954 1208.17 769.937C1203.74 768.919 1199.33 768.41 1194.92 768.41C1189.92 768.41 1185.82 769.001 1182.63 770.184C1179.44 771.367 1177.1 773.031 1175.61 775.177C1174.16 777.322 1173.43 779.908 1173.43 782.933C1173.43 786.262 1174.29 788.944 1176.03 790.979C1177.76 792.987 1180.14 794.569 1183.17 795.724C1186.19 796.879 1190.39 798.076 1195.75 799.313C1202.6 800.936 1208.14 802.711 1212.38 804.636C1216.61 806.534 1219.89 809.078 1222.2 812.269C1224.51 815.432 1225.66 819.517 1225.66 824.523C1225.66 829.529 1224.38 833.917 1221.83 837.685C1219.27 841.453 1215.36 844.397 1210.11 846.515C1204.88 848.633 1198.4 849.692 1190.67 849.692C1185.31 849.692 1180.14 849.155 1175.16 848.083C1170.21 847.037 1165.92 845.607 1162.29 843.792V834.838Z" fill="black"/>
</g>
<defs>
<clipPath id="clip0">
<rect width="1379" height="848" fill="white"/>
</clipPath>
</defs>
</svg>
