<svg width="305" height="36" viewBox="0 0 305 36" fill="none" xmlns="http://www.w3.org/2000/svg">
<path d="M13.2578 22.9531H8.80469V35H0.578125V0.875H14.0078C18.0547 0.875 21.2188 1.77344 23.5 3.57031C25.7812 5.36719 26.9219 7.90625 26.9219 11.1875C26.9219 13.5625 26.4375 15.5312 25.4688 17.0938C24.5156 18.6562 23.0156 19.9219 20.9688 20.8906L28.0938 34.6484V35H19.2812L13.2578 22.9531ZM8.80469 16.6016H14.0078C15.5703 16.6016 16.7422 16.1953 17.5234 15.3828C18.3203 14.5547 18.7188 13.4062 18.7188 11.9375C18.7188 10.4688 18.3203 9.32031 17.5234 8.49219C16.7266 7.64844 15.5547 7.22656 14.0078 7.22656H8.80469V16.6016Z" fill="black"/>
<path d="M53.0547 20.5391H40.1172V28.6719H55.3984V35H31.8906V0.875H55.4453V7.22656H40.1172V14.4219H53.0547V20.5391Z" fill="black"/>
<path d="M71.9922 25.7188L78.7891 0.875H87.9766L76.4922 35H67.4922L56.1016 0.875H65.2188L71.9922 25.7188Z" fill="black"/>
<path d="M111.648 20.5391H98.7109V28.6719H113.992V35H90.4844V0.875H114.039V7.22656H98.7109V14.4219H111.648V20.5391Z" fill="black"/>
<path d="M130.023 22.9531H125.57V35H117.344V0.875H130.773C134.82 0.875 137.984 1.77344 140.266 3.57031C142.547 5.36719 143.688 7.90625 143.688 11.1875C143.688 13.5625 143.203 15.5312 142.234 17.0938C141.281 18.6562 139.781 19.9219 137.734 20.8906L144.859 34.6484V35H136.047L130.023 22.9531ZM125.57 16.6016H130.773C132.336 16.6016 133.508 16.1953 134.289 15.3828C135.086 14.5547 135.484 13.4062 135.484 11.9375C135.484 10.4688 135.086 9.32031 134.289 8.49219C133.492 7.64844 132.32 7.22656 130.773 7.22656H125.57V16.6016Z" fill="black"/>
<path d="M166.258 25.9297C166.258 24.7266 165.828 23.7891 164.969 23.1172C164.125 22.4453 162.633 21.75 160.492 21.0312C158.352 20.3125 156.602 19.6172 155.242 18.9453C150.82 16.7734 148.609 13.7891 148.609 9.99219C148.609 8.10156 149.156 6.4375 150.25 5C151.359 3.54688 152.922 2.42188 154.938 1.625C156.953 0.8125 159.219 0.40625 161.734 0.40625C164.188 0.40625 166.383 0.84375 168.32 1.71875C170.273 2.59375 171.789 3.84375 172.867 5.46875C173.945 7.07812 174.484 8.92188 174.484 11H166.281C166.281 9.60938 165.852 8.53125 164.992 7.76562C164.148 7 163 6.61719 161.547 6.61719C160.078 6.61719 158.914 6.94531 158.055 7.60156C157.211 8.24219 156.789 9.0625 156.789 10.0625C156.789 10.9375 157.258 11.7344 158.195 12.4531C159.133 13.1562 160.781 13.8906 163.141 14.6562C165.5 15.4062 167.438 16.2188 168.953 17.0938C172.641 19.2188 174.484 22.1484 174.484 25.8828C174.484 28.8672 173.359 31.2109 171.109 32.9141C168.859 34.6172 165.773 35.4688 161.852 35.4688C159.086 35.4688 156.578 34.9766 154.328 33.9922C152.094 32.9922 150.406 31.6328 149.266 29.9141C148.141 28.1797 147.578 26.1875 147.578 23.9375H155.828C155.828 25.7656 156.297 27.1172 157.234 27.9922C158.188 28.8516 159.727 29.2812 161.852 29.2812C163.211 29.2812 164.281 28.9922 165.062 28.4141C165.859 27.8203 166.258 26.9922 166.258 25.9297Z" fill="black"/>
<path d="M207.602 18.6406C207.602 21.9688 206.984 24.9141 205.75 27.4766C204.516 30.0391 202.758 32.0156 200.477 33.4062C198.211 34.7812 195.625 35.4688 192.719 35.4688C189.812 35.4688 187.234 34.8047 184.984 33.4766C182.734 32.1328 180.977 30.2188 179.711 27.7344C178.461 25.25 177.805 22.3984 177.742 19.1797V17.2578C177.742 13.9141 178.352 10.9688 179.57 8.42188C180.805 5.85938 182.562 3.88281 184.844 2.49219C187.141 1.10156 189.75 0.40625 192.672 0.40625C195.562 0.40625 198.141 1.09375 200.406 2.46875C202.672 3.84375 204.43 5.80469 205.68 8.35156C206.945 10.8828 207.586 13.7891 207.602 17.0703V18.6406ZM199.234 17.2109C199.234 13.8203 198.664 11.25 197.523 9.5C196.398 7.73438 194.781 6.85156 192.672 6.85156C188.547 6.85156 186.367 9.94531 186.133 16.1328L186.109 18.6406C186.109 21.9844 186.664 24.5547 187.773 26.3516C188.883 28.1484 190.531 29.0469 192.719 29.0469C194.797 29.0469 196.398 28.1641 197.523 26.3984C198.648 24.6328 199.219 22.0938 199.234 18.7812V17.2109Z" fill="black"/>
<path d="M242.805 26.0938H228.508L225.297 35H220.656L233.688 0.875H237.625L250.68 35H246.062L242.805 26.0938ZM229.867 22.3906H241.469L235.656 6.42969L229.867 22.3906Z" fill="black"/>
<path d="M265.622 35H261.122V0.875H265.622V35Z" fill="black"/>
<path d="M291.907 21.1953H283.892V35H279.368V0.875H290.665C294.509 0.875 297.462 1.75 299.524 3.5C301.603 5.25 302.642 7.79688 302.642 11.1406C302.642 13.2656 302.063 15.1172 300.907 16.6953C299.767 18.2734 298.173 19.4531 296.126 20.2344L304.142 34.7188V35H299.313L291.907 21.1953ZM283.892 17.5156H290.806C293.04 17.5156 294.813 16.9375 296.126 15.7812C297.454 14.625 298.118 13.0781 298.118 11.1406C298.118 9.03125 297.485 7.41406 296.22 6.28906C294.97 5.16406 293.157 4.59375 290.782 4.57812H283.892V17.5156Z" fill="black"/>
</svg>
