<svg width="200" height="48" viewBox="0 0 200 48" fill="none" xmlns="http://www.w3.org/2000/svg">
<g clip-path="url(#clip0)">
<path d="M12.56 6.63047H8.45143V21.7945H12.2438C14.6133 21.7945 15.72 20.8765 15.72 18.9736V9.25674C15.72 7.48363 14.6933 6.63047 12.56 6.63047ZM24.2514 30.7231V46.3471H15.8V30.8529C15.8 28.8183 14.6933 27.9002 12.2438 27.9002H8.45143V46.3471H0V0.394978H13.9029C20.7752 0.394978 24.1733 3.21784 24.1733 8.92846V17.5936C24.1733 21.6647 22.4343 23.6325 19.3543 24.6842C22.8305 25.4705 24.2514 27.2437 24.2514 30.7231Z" fill="white"/>
<path d="M47.9497 0.395955V6.76314H37.6012V19.7609H47.5535V26.1262H37.6012V39.979H48.1078V46.3462H29.1478V0.395955H47.9497Z" fill="white"/>
<path d="M58.9319 46.4124L50.7947 0.397232H59.3262L64.3033 34.6628L69.4385 0.397232H77.4957L69.2823 46.4124H58.9319Z" fill="white"/>
<path d="M99.6945 0.395955V6.76314H89.344V19.7609H99.2983V26.1262H89.344V39.979H99.8526V46.3462H80.8926V0.395955H99.6945Z" fill="white"/>
<path d="M116.915 6.63047H112.809V21.7945H116.599C118.969 21.7945 120.075 20.8765 120.075 18.9736V9.25674C120.075 7.48363 119.049 6.63047 116.915 6.63047ZM128.607 30.7231V46.3471H120.154V30.8529C120.154 28.8183 119.049 27.9002 116.599 27.9002H112.809V46.3471H104.355V0.394978H118.258C125.131 0.394978 128.529 3.21784 128.529 8.92846V17.5936C128.529 21.6647 126.792 23.6325 123.708 24.6842C127.186 25.4705 128.607 27.2437 128.607 30.7231Z" fill="white"/>
<path d="M157.44 30.7232V38.2069C157.44 43.9176 154.044 46.7404 147.17 46.7404H143.457C136.585 46.7404 133.269 43.9176 133.269 38.2718V28.555H141.482V38.0084C141.482 39.7816 142.509 40.6347 144.722 40.6347H145.827C148.038 40.6347 149.067 39.7816 149.067 38.0084V31.7081C149.067 29.8051 148.276 28.9501 146.695 27.9671L138.166 22.7795C134.373 20.5483 133.269 18.382 133.269 14.8377V8.53538C133.269 2.82476 136.665 -1.18536e-05 143.537 -1.18536e-05H147.092C153.886 -1.18536e-05 157.282 2.82476 157.282 8.47049V16.8055H148.989V8.73197C148.989 6.96076 147.96 6.1076 145.827 6.1076H144.8C142.667 6.1076 141.64 6.96076 141.64 8.73197V13.8509C141.64 15.7557 142.431 16.6757 144.01 17.5937L152.543 22.7795C156.255 25.0126 157.44 26.9804 157.44 30.7232Z" fill="white"/>
<path d="M175.294 6.17251H173.555C171.343 6.17251 170.316 7.02566 170.316 8.86367V37.8787C170.316 39.7167 171.343 40.5698 173.555 40.5698H175.294C177.425 40.5698 178.454 39.7167 178.454 37.8787V8.86367C178.454 7.02566 177.425 6.17251 175.294 6.17251ZM176.636 46.7404H172.134C165.259 46.7404 161.863 43.9176 161.863 38.2069V8.53539C161.863 2.82477 165.259 0.00190813 172.134 0.00190813H176.636C183.509 0.00190813 186.907 2.82477 186.907 8.53539V38.2069C186.907 43.9176 183.509 46.7404 176.636 46.7404Z" fill="white"/>
<path d="M193.536 4.39762H193.888C194.387 4.39762 194.698 4.37854 194.82 4.34227C194.94 4.30601 195.035 4.24111 195.105 4.14759C195.174 4.05598 195.21 3.951 195.21 3.83267C195.21 3.72006 195.176 3.61699 195.107 3.52729C195.041 3.43949 194.941 3.3746 194.818 3.33642C194.69 3.29825 194.38 3.27917 193.888 3.27917H193.536V4.39762ZM192.669 6.72806V2.62832H193.536C194.347 2.62832 194.802 2.63023 194.901 2.63787C195.187 2.66268 195.41 2.71612 195.57 2.80201C195.728 2.8879 195.863 3.01768 195.968 3.19519C196.077 3.37269 196.13 3.56737 196.13 3.78304C196.13 4.07888 196.029 4.33273 195.827 4.54077C195.627 4.75263 195.343 4.88241 194.98 4.93204C195.109 4.97975 195.208 5.03129 195.279 5.08473C195.349 5.14199 195.444 5.24696 195.566 5.40156C195.599 5.44164 195.705 5.60769 195.882 5.89971L196.387 6.72806H195.317L194.959 6.06195C194.717 5.61533 194.519 5.33285 194.361 5.21833C194.202 5.10191 194.002 5.04274 193.761 5.04274H193.536V6.72806H192.669ZM194.49 1.55376C193.938 1.55376 193.408 1.68737 192.9 1.95267C192.391 2.21797 191.991 2.59969 191.7 3.09594C191.406 3.59409 191.261 4.11705 191.261 4.66101C191.261 5.20116 191.402 5.71649 191.688 6.207C191.974 6.69943 192.372 7.08116 192.882 7.35791C193.395 7.63275 193.93 7.77208 194.49 7.77208C195.056 7.77208 195.591 7.63275 196.102 7.35791C196.61 7.08116 197.008 6.69943 197.296 6.207C197.583 5.71649 197.726 5.20116 197.726 4.66101C197.726 4.11705 197.58 3.59409 197.288 3.09594C196.995 2.59969 196.593 2.21797 196.086 1.95267C195.576 1.68737 195.044 1.55376 194.49 1.55376ZM194.486 0.797947C195.174 0.797947 195.837 0.962089 196.471 1.29419C197.105 1.62629 197.604 2.09963 197.964 2.71803C198.328 3.33642 198.509 3.98345 198.509 4.66101C198.509 5.33285 198.332 5.97415 197.976 6.58491C197.622 7.19376 197.126 7.67092 196.49 8.01257C195.854 8.3523 195.185 8.52217 194.486 8.52217C193.785 8.52217 193.117 8.3523 192.481 8.01257C191.846 7.67092 191.351 7.19376 190.995 6.58491C190.639 5.97415 190.463 5.33285 190.463 4.66101C190.463 3.98345 190.642 3.33642 191.006 2.71803C191.368 2.09963 191.865 1.62629 192.5 1.29419C193.134 0.962089 193.797 0.797947 194.486 0.797947Z" fill="white"/>
</g>
<defs>
<clipPath id="clip0">
<rect width="200" height="47.7157" fill="white"/>
</clipPath>
</defs>
</svg>
