<svg width="296" height="114" viewBox="0 0 296 114" fill="none" xmlns="http://www.w3.org/2000/svg">
<path d="M59.5 72C60.2705 72 61.0082 72.1968 61.7213 72.5817C62.4262 72.9667 62.9836 73.5228 63.3934 74.2414C63.8033 74.9601 64 75.7129 64 76.5C64 77.2785 63.8033 78.0314 63.4016 78.7414C63 79.4515 62.4508 80.0076 61.7377 80.4011C61.0246 80.7947 60.2787 81 59.5 81C58.7213 81 57.9672 80.8032 57.2623 80.4011C56.5492 80.0076 56 79.4515 55.5984 78.7414C55.1967 78.0314 55 77.2871 55 76.5C55 75.7129 55.2049 74.9601 55.6066 74.2414C56.0082 73.5228 56.5656 72.9667 57.2787 72.5817C57.9836 72.1882 58.7295 72 59.5 72ZM59.5082 72.8812C58.8852 72.8812 58.2951 73.0352 57.7295 73.3432C57.1639 73.6511 56.7131 74.096 56.3852 74.6778C56.0574 75.2595 55.8934 75.8669 55.8934 76.5C55.8934 77.1331 56.0492 77.7319 56.3689 78.3051C56.6885 78.8783 57.1311 79.3232 57.7049 79.6483C58.2787 79.9734 58.8771 80.1274 59.5 80.1274C60.1311 80.1274 60.7295 79.9648 61.2951 79.6483C61.8689 79.3318 62.3115 78.8783 62.6311 78.3051C62.9508 77.7319 63.1148 77.1331 63.1148 76.5C63.1148 75.8669 62.9508 75.2595 62.623 74.6778C62.2951 74.096 61.8443 73.6511 61.2787 73.3432C60.7131 73.0352 60.123 72.8812 59.5082 72.8812ZM57.4672 78.904V74.1302H58.4344C59.3443 74.1302 59.8525 74.1302 59.959 74.1388C60.2787 74.1644 60.5328 74.2329 60.7049 74.327C60.8852 74.4297 61.0328 74.5837 61.1475 74.7804C61.2705 74.9857 61.3279 75.2167 61.3279 75.4648C61.3279 75.807 61.2131 76.1065 60.9918 76.346C60.7705 76.5856 60.4508 76.7395 60.041 76.7994C60.1885 76.8508 60.2951 76.9106 60.3771 76.9791C60.459 77.039 60.5656 77.1673 60.6967 77.347C60.7295 77.3897 60.8525 77.5865 61.0492 77.9287L61.6148 78.8954H60.418L60.0164 78.1169C59.7459 77.5951 59.5246 77.27 59.3443 77.1331C59.1721 76.9962 58.9426 76.9278 58.6721 76.9278H58.418V78.8869H57.4672V78.904ZM58.4344 76.192H58.8279C59.3852 76.192 59.7377 76.1749 59.8689 76.1236C60 76.0808 60.1066 76.0038 60.1885 75.9011C60.2623 75.7899 60.3033 75.6702 60.3033 75.5333C60.3033 75.3964 60.2623 75.2766 60.1885 75.174C60.1148 75.0713 60 74.9943 59.8607 74.9515C59.7213 74.9087 59.377 74.8831 58.8197 74.8831H58.4262V76.192H58.4344Z" fill="white"/>
<path d="M0 52.469V73.3451L40.1768 35.0136V53.8236L0 92.1551V113.031L27.5043 86.7967V87.5255L54.5116 114V93.1239L37.9148 76.8602L55 60.5537V56.9528V39.6861V20.8761V17.944V0L0 52.469Z" fill="white"/>
<path d="M106.13 81.32V98.22H96.9698V81.46C96.9698 79.26 95.7698 78.27 93.1199 78.27H88.9998V98.22H79.8398V48.51H94.9099C102.36 48.51 106.04 51.56 106.04 57.74V67.11C106.04 71.51 104.15 73.64 100.82 74.78C104.59 75.64 106.13 77.55 106.13 81.32ZM93.4498 55.25H88.9998V71.65H93.1098C95.6798 71.65 96.8798 70.65 96.8798 68.6V58.1C96.8798 56.18 95.7698 55.25 93.4498 55.25Z" fill="white"/>
<path d="M131.82 48.51V55.4H120.6V69.46H131.39V76.35H120.6V91.33H131.99V98.22H111.44V48.51H131.82Z" fill="white"/>
<path d="M143.72 98.29L134.9 48.51H144.15L149.54 85.58L155.11 48.51H163.85L154.94 98.29H143.72Z" fill="white"/>
<path d="M187.91 48.51V55.4H176.69V69.46H187.48V76.35H176.69V91.33H188.08V98.22H167.53V48.51H187.91Z" fill="white"/>
<path d="M219.25 81.32V98.22H210.09V81.46C210.09 79.26 208.89 78.27 206.24 78.27H202.13V98.22H192.97V48.51H208.04C215.49 48.51 219.17 51.56 219.17 57.74V67.11C219.17 71.51 217.29 73.64 213.95 74.78C217.71 75.64 219.25 77.55 219.25 81.32ZM206.58 55.25H202.13V71.65H206.24C208.81 71.65 210.01 70.65 210.01 68.6V58.1C210 56.18 208.89 55.25 206.58 55.25Z" fill="white"/>
<path d="M250.51 81.32V89.42C250.51 95.6 246.83 98.65 239.38 98.65H235.36C227.91 98.65 224.32 95.6 224.32 89.49V78.97H233.22V89.19C233.22 91.11 234.33 92.03 236.73 92.03H237.93C240.33 92.03 241.44 91.11 241.44 89.19V82.37C241.44 80.31 240.58 79.39 238.87 78.32L229.62 72.71C225.51 70.3 224.31 67.95 224.31 64.12V57.3C224.31 51.12 227.99 48.07 235.44 48.07H239.29C246.66 48.07 250.34 51.12 250.34 57.23V66.25H241.35V57.52C241.35 55.6 240.23 54.68 237.92 54.68H236.81C234.5 54.68 233.38 55.6 233.38 57.52V63.06C233.38 65.12 234.24 66.11 235.95 67.11L245.2 72.72C249.22 75.14 250.51 77.27 250.51 81.32Z" fill="white"/>
<path d="M271.31 98.65H266.43C258.98 98.65 255.3 95.6 255.3 89.42V57.32C255.3 51.14 258.98 48.09 266.43 48.09H271.31C278.76 48.09 282.44 51.14 282.44 57.32V89.42C282.45 95.59 278.76 98.65 271.31 98.65ZM269.86 54.76H267.97C265.57 54.76 264.46 55.68 264.46 57.67V89.06C264.46 91.05 265.57 91.97 267.97 91.97H269.86C272.17 91.97 273.29 91.05 273.29 89.06V57.67C273.28 55.68 272.17 54.76 269.86 54.76Z" fill="white"/>
<path d="M290.66 48.94C291.41 48.94 292.12 49.12 292.81 49.48C293.5 49.84 294.04 50.35 294.43 51.02C294.82 51.69 295.02 52.39 295.02 53.12C295.02 53.85 294.83 54.54 294.44 55.2C294.06 55.86 293.52 56.37 292.83 56.74C292.14 57.11 291.42 57.29 290.66 57.29C289.9 57.29 289.18 57.11 288.49 56.74C287.8 56.37 287.27 55.86 286.88 55.2C286.49 54.54 286.3 53.85 286.3 53.12C286.3 52.39 286.49 51.69 286.89 51.02C287.28 50.35 287.82 49.84 288.51 49.48C289.2 49.12 289.92 48.94 290.66 48.94ZM290.67 49.76C290.07 49.76 289.5 49.9 288.95 50.19C288.4 50.48 287.97 50.89 287.65 51.43C287.33 51.97 287.18 52.53 287.18 53.12C287.18 53.71 287.33 54.26 287.64 54.79C287.95 55.32 288.38 55.74 288.93 56.04C289.49 56.34 290.07 56.49 290.67 56.49C291.28 56.49 291.86 56.34 292.42 56.04C292.97 55.74 293.4 55.33 293.71 54.79C294.02 54.26 294.18 53.7 294.18 53.12C294.18 52.53 294.02 51.97 293.71 51.43C293.39 50.89 292.96 50.48 292.41 50.19C291.85 49.91 291.27 49.76 290.67 49.76ZM288.69 55.36V50.92H289.63C290.51 50.92 291 50.92 291.11 50.93C291.42 50.95 291.66 51.01 291.83 51.11C292 51.2 292.15 51.34 292.26 51.54C292.38 51.73 292.44 51.94 292.44 52.18C292.44 52.5 292.33 52.77 292.11 53C291.89 53.23 291.59 53.37 291.19 53.42C291.33 53.47 291.44 53.53 291.51 53.59C291.59 53.65 291.69 53.77 291.82 53.93C291.86 53.97 291.97 54.15 292.16 54.47L292.71 55.37H291.55L291.16 54.65C290.9 54.17 290.68 53.86 290.51 53.74C290.34 53.62 290.12 53.55 289.86 53.55H289.62V55.37H288.69V55.36ZM289.63 52.84H290.01C290.55 52.84 290.89 52.82 291.02 52.78C291.15 52.74 291.25 52.67 291.33 52.57C291.4 52.47 291.44 52.36 291.44 52.23C291.44 52.11 291.4 52 291.33 51.9C291.26 51.81 291.15 51.73 291.02 51.69C290.88 51.65 290.55 51.63 290.01 51.63H289.63V52.84Z" fill="white"/>
</svg>
