<svg width="1379" height="848" viewBox="0 0 1379 848" fill="none" xmlns="http://www.w3.org/2000/svg">
<path fill-rule="evenodd" clip-rule="evenodd" d="M766.607 40.2795C799.585 14.1311 840.453 -0.0676781 882.54 0.000267795C985.815 0.000267795 1069.5 83.6926 1069.5 186.968C1069.5 290.243 985.815 373.935 882.54 373.935C840.453 374.005 799.585 359.806 766.607 333.656C733.629 359.806 692.761 374.005 650.674 373.935C608.59 374 567.725 359.802 534.748 333.656C501.773 359.807 460.906 374.006 418.821 373.935C376.736 374.001 335.871 359.803 302.894 333.656C269.916 359.801 229.052 374 186.968 373.935C83.6863 373.935 0 290.237 0 186.968C0 83.6866 83.6924 0.000267795 186.968 0.000267795C229.052 -0.0658208 269.917 14.1328 302.894 40.2795C335.872 14.1337 376.736 -0.0648596 418.821 0.000267795C460.907 -0.07111 501.773 14.1281 534.748 40.2795C567.725 14.1337 608.59 -0.0648596 650.674 0.000267795C692.762 -0.0696013 733.63 14.1294 766.607 40.2795ZM186.968 331.1C218.715 331.1 248.479 320.493 272.303 303.114C246.129 270.056 231.879 229.132 231.859 186.968C231.772 144.787 246.034 103.831 272.303 70.8281C248.46 53.4422 218.715 42.8293 186.968 42.8293C107.298 42.8293 42.829 107.298 42.829 186.968C42.829 266.638 107.298 331.1 186.968 331.1ZM274.695 186.968C274.634 217.806 284.527 247.841 302.9 272.607C321.272 247.84 331.164 217.806 331.106 186.968C331.18 156.127 321.286 126.089 302.9 101.328C284.511 126.087 274.617 156.127 274.695 186.968ZM418.724 331.058C449.461 331.132 479.41 321.337 504.162 303.114C477.987 270.059 463.737 229.137 463.719 186.974C463.631 144.793 477.893 103.837 504.162 70.8342C480.247 53.2292 450.702 42.884 418.724 42.884C388.049 42.8199 358.166 52.6187 333.485 70.8342C359.755 103.837 374.017 144.793 373.929 186.974C373.912 229.137 359.662 270.06 333.485 303.114C358.169 321.324 388.05 331.12 418.724 331.058ZM506.542 186.968C506.482 217.806 516.374 247.841 534.748 272.607C553.124 247.841 563.018 217.807 562.959 186.968C563.034 156.126 553.138 126.087 534.748 101.328C516.361 126.088 506.467 156.127 506.542 186.968ZM650.583 331.058C682.556 331.058 712.1 320.725 736.016 303.114C709.844 270.058 695.593 229.136 695.572 186.974C695.488 144.794 709.75 103.838 736.016 70.8342C712.1 53.2292 682.556 42.884 650.583 42.884C618.61 42.884 589.254 53.2353 565.339 70.8342C591.608 103.837 605.87 144.793 605.782 186.974C605.768 229.138 591.517 270.061 565.339 303.114C589.254 320.706 618.61 331.058 650.583 331.058ZM738.407 186.968C738.347 217.806 748.239 247.841 766.613 272.607C784.983 247.838 794.874 217.805 794.819 186.968C794.892 156.127 784.999 126.089 766.613 101.328C748.221 126.086 738.327 156.126 738.407 186.968ZM797.204 303.114C821.023 320.493 850.78 331.1 882.54 331.1C962.198 331.1 1026.68 266.632 1026.68 186.974C1026.68 107.304 962.198 42.8353 882.54 42.8353C850.786 42.8353 821.047 53.4543 797.204 70.8342C823.47 103.838 837.732 144.794 837.648 186.974C837.628 229.137 823.378 270.058 797.204 303.114Z" fill="black"/>
<path d="M41.3083 846.253V729.318H0V719.858H93.5925V729.318H52.2842V846.253H41.3083Z" fill="black"/>
<path d="M158.639 846.253L158.129 837.687C154.101 840.784 149.521 843.284 144.388 845.187C139.254 847.062 133.837 848 128.137 848C121.954 848 116.565 847.02 111.971 845.06C107.376 843.099 103.831 840.287 101.335 836.622C98.8677 832.929 97.634 828.582 97.634 823.582C97.634 817.474 99.3782 812.36 102.867 808.241C106.383 804.093 111.715 800.954 118.862 798.823C126.01 796.692 135.028 795.627 145.919 795.627C149.635 795.627 153.577 795.684 157.746 795.797V787.615C157.746 782.104 156.923 777.629 155.278 774.192C153.662 770.726 151.123 768.169 147.663 766.521C144.203 764.873 139.665 764.049 134.05 764.049C127.952 764.049 122.464 764.745 117.586 766.137C112.736 767.501 108.184 769.191 103.93 771.209V762.132C108.241 759.973 112.963 758.24 118.097 756.933C123.23 755.626 128.789 754.972 134.773 754.972C141.466 754.972 147.295 755.967 152.258 757.955C157.25 759.916 161.178 763.154 164.042 767.672C166.935 772.16 168.381 778.041 168.381 785.314V846.253H158.639ZM157.746 804.533H145.919C137.042 804.533 129.852 805.243 124.35 806.664C118.877 808.084 114.878 810.172 112.354 812.928C109.858 815.656 108.61 819.079 108.61 823.198C108.61 826.323 109.347 829.065 110.822 831.423C112.297 833.781 114.608 835.628 117.756 836.963C120.904 838.27 124.889 838.923 129.711 838.923C134.646 838.923 139.481 838.085 144.217 836.409C148.954 834.704 153.463 832.218 157.746 828.951V804.533Z" fill="black"/>
<path d="M235.002 845.017C230.124 846.409 225.657 847.105 221.601 847.105C215.475 847.105 210.838 845.656 207.69 842.758C204.542 839.861 202.968 834.917 202.968 827.929V715H213.561V826.863C213.561 830.613 214.185 833.412 215.433 835.258C216.681 837.105 218.964 838.028 222.282 838.028C226.508 838.028 230.748 837.574 235.002 836.665V845.017Z" fill="black"/>
<path d="M322.256 840.841C318.626 842.886 314.145 844.591 308.813 845.954C303.481 847.318 297.454 848 290.732 848C281.401 848 273.73 846.139 267.717 842.417C261.733 838.667 257.337 833.326 254.529 826.394C251.721 819.434 250.317 811.039 250.317 801.209C250.317 792.203 251.806 784.22 254.784 777.26C257.762 770.271 262.187 764.816 268.057 760.896C273.928 756.947 281.018 754.972 289.328 754.972C297.383 754.972 304.204 756.805 309.791 760.47C315.407 764.106 319.618 769.106 322.426 775.47C325.234 781.834 326.638 789.078 326.638 797.203C326.638 799.107 326.51 800.854 326.255 802.445H261.463C261.634 810.826 262.74 817.687 264.782 823.028C266.852 828.34 270.071 832.318 274.439 834.96C278.835 837.602 284.606 838.923 291.753 838.923C297.681 838.923 302.814 838.412 307.153 837.389C311.493 836.338 316.527 834.633 322.256 832.275V840.841ZM315.662 793.539C315.407 787.573 314.215 782.374 312.088 777.942C309.961 773.51 306.941 770.086 303.027 767.672C299.141 765.257 294.518 764.049 289.158 764.049C283.94 764.049 279.317 765.271 275.289 767.714C271.291 770.129 268.114 773.567 265.76 778.027C263.406 782.459 262.031 787.629 261.634 793.539H315.662Z" fill="black"/>
<path d="M418.486 846.253V784.973C418.486 779.803 417.635 775.683 415.933 772.615C414.26 769.547 411.821 767.359 408.616 766.052C405.411 764.717 401.384 764.049 396.534 764.049C390.834 764.049 385.558 764.887 380.709 766.564C375.859 768.24 371.151 770.825 366.585 774.319V846.253H355.949V756.72H365.691L366.415 765.456C370.499 762.274 375.15 759.731 380.368 757.828C385.615 755.924 391.174 754.972 397.045 754.972C403.738 754.972 409.467 755.938 414.232 757.87C418.996 759.802 422.669 762.842 425.25 766.99C427.831 771.109 429.121 776.408 429.121 782.885V846.253H418.486Z" fill="black"/>
<path d="M513.653 844.165C511.469 845.216 508.562 846.111 504.931 846.849C501.329 847.616 497.685 848 493.998 848C488.78 848 484.327 847.332 480.64 845.997C476.981 844.633 474.074 842.204 471.919 838.71C469.792 835.187 468.728 830.315 468.728 824.093V765.626H450.435V756.72H468.728L469.239 730.171H479.364V756.72H515.397V765.626H479.364V822.857C479.364 827.261 480.016 830.642 481.321 833C482.625 835.329 484.412 836.906 486.681 837.73C488.978 838.525 491.871 838.923 495.359 838.923C498.763 838.923 502.01 838.596 505.102 837.943C508.193 837.261 511.043 836.366 513.653 835.258V844.165Z" fill="black"/>
<path d="M603.884 840.841C600.254 842.886 595.773 844.591 590.441 845.954C585.109 847.318 579.082 848 572.361 848C563.03 848 555.358 846.139 549.345 842.417C543.361 838.667 538.965 833.326 536.157 826.394C533.349 819.434 531.946 811.039 531.946 801.209C531.946 792.203 533.435 784.22 536.412 777.26C539.39 770.271 543.815 764.816 549.686 760.896C555.556 756.947 562.647 754.972 570.957 754.972C579.011 754.972 585.832 756.805 591.419 760.47C597.035 764.106 601.247 769.106 604.054 775.47C606.862 781.834 608.266 789.078 608.266 797.203C608.266 799.107 608.138 800.854 607.883 802.445H543.092C543.262 810.826 544.368 817.687 546.41 823.028C548.48 828.34 551.699 832.318 556.067 834.96C560.463 837.602 566.234 838.923 573.382 838.923C579.309 838.923 584.442 838.412 588.782 837.389C593.121 836.338 598.155 834.633 603.884 832.275V840.841ZM597.29 793.539C597.035 787.573 595.844 782.374 593.717 777.942C591.59 773.51 588.569 770.086 584.655 767.672C580.77 765.257 576.147 764.049 570.786 764.049C565.568 764.049 560.945 765.271 556.918 767.714C552.919 770.129 549.742 773.567 547.388 778.027C545.034 782.459 543.659 787.629 543.262 793.539H597.29Z" fill="black"/>
<path d="M700.284 846.253L699.604 837.517C695.236 840.898 690.712 843.497 686.033 845.315C681.382 847.105 676.489 848 671.356 848C663.103 848 655.998 846.253 650.042 842.758C644.115 839.264 639.563 834.093 636.386 827.247C633.238 820.372 631.664 811.991 631.664 802.104C631.664 791.962 633.337 783.368 636.684 776.322C640.031 769.248 644.71 763.921 650.723 760.342C656.736 756.762 663.741 754.972 671.739 754.972C676.986 754.972 681.949 755.74 686.628 757.274C691.308 758.779 695.576 760.853 699.434 763.495V715H710.069V846.253H700.284ZM699.434 772.956C695.378 770.058 691.095 767.856 686.586 766.351C682.076 764.816 677.411 764.049 672.59 764.049C666.18 764.049 660.763 765.441 656.338 768.226C651.914 771.01 648.553 775.2 646.256 780.797C643.959 786.394 642.81 793.382 642.81 801.763C642.81 809.974 643.93 816.835 646.171 822.346C648.44 827.858 651.772 832.005 656.168 834.789C660.593 837.545 666.01 838.923 672.419 838.923C677.212 838.923 681.779 838.071 686.118 836.366C690.486 834.633 694.924 832.048 699.434 828.61V772.956Z" fill="black"/>
<path d="M872.452 846.253L859.392 810.627H801.194L788.091 846.253H776.605L824.337 719.858H837.057L884.662 846.253H872.452ZM834.122 741.336C832.647 737.302 831.427 733.637 830.463 730.341C829.272 734.29 828.052 737.955 826.804 741.336L804.683 801.38H856.073L834.122 741.336Z" fill="black"/>
<path d="M980.041 846.253L959.493 782.885C958.444 780.044 957.224 775.854 955.834 770.314C955.069 773.24 953.849 777.43 952.176 782.885L931.585 846.253H919.078L888.746 756.72H900.232L922.354 824.946C923.148 827.36 924.367 831.551 926.012 837.517C926.636 834.477 927.742 830.287 929.331 824.946L951.453 756.72H960.684L982.849 824.946C984.437 830.287 985.529 834.477 986.124 837.517C987.996 830.954 989.23 826.764 989.825 824.946L1011.39 756.72H1022.92L992.591 846.253H980.041Z" fill="black"/>
<path d="M1098.82 846.253L1098.31 837.687C1094.28 840.784 1089.7 843.284 1084.57 845.187C1079.43 847.062 1074.02 848 1068.32 848C1062.13 848 1056.74 847.02 1052.15 845.06C1047.56 843.099 1044.01 840.287 1041.51 836.622C1039.05 832.929 1037.81 828.582 1037.81 823.582C1037.81 817.474 1039.56 812.36 1043.05 808.241C1046.56 804.093 1051.89 800.954 1059.04 798.823C1066.19 796.692 1075.21 795.627 1086.1 795.627C1089.81 795.627 1093.76 795.684 1097.92 795.797V787.615C1097.92 782.104 1097.1 777.629 1095.46 774.192C1093.84 770.726 1091.3 768.169 1087.84 766.521C1084.38 764.873 1079.84 764.049 1074.23 764.049C1068.13 764.049 1062.64 764.745 1057.77 766.137C1052.92 767.501 1048.36 769.191 1044.11 771.209V762.132C1048.42 759.973 1053.14 758.24 1058.28 756.933C1063.41 755.626 1068.97 754.972 1074.95 754.972C1081.65 754.972 1087.47 755.967 1092.44 757.955C1097.43 759.916 1101.36 763.154 1104.22 767.672C1107.11 772.16 1108.56 778.041 1108.56 785.314V846.253H1098.82ZM1097.92 804.533H1086.1C1077.22 804.533 1070.03 805.243 1064.53 806.664C1059.06 808.084 1055.06 810.172 1052.53 812.928C1050.04 815.656 1048.79 819.079 1048.79 823.198C1048.79 826.323 1049.53 829.065 1051 831.423C1052.48 833.781 1054.79 835.628 1057.94 836.963C1061.08 838.27 1065.07 838.923 1069.89 838.923C1074.82 838.923 1079.66 838.085 1084.4 836.409C1089.13 834.704 1093.64 832.218 1097.92 828.951V804.533Z" fill="black"/>
<path d="M1143.49 846.253V756.72H1153.23L1153.95 770.314C1155.77 767.473 1157.95 764.916 1160.5 762.643C1163.06 760.342 1166.08 758.495 1169.57 757.103C1173.08 755.683 1177 754.972 1181.31 754.972C1183.94 754.972 1186.34 755.2 1188.5 755.654C1190.68 756.109 1192.64 756.691 1194.37 757.401V767.544C1192.24 766.89 1189.9 766.351 1187.35 765.924C1184.82 765.47 1182.51 765.243 1180.41 765.243C1176.24 765.243 1172.59 765.981 1169.44 767.459C1166.32 768.907 1163.54 771.067 1161.1 773.936C1158.69 776.805 1156.36 780.484 1154.12 784.973V846.253H1143.49Z" fill="black"/>
<path d="M1274.94 846.253L1274.26 837.517C1269.89 840.898 1265.37 843.497 1260.69 845.315C1256.04 847.105 1251.15 848 1246.01 848C1237.76 848 1230.66 846.253 1224.7 842.758C1218.77 839.264 1214.22 834.093 1211.04 827.247C1207.9 820.372 1206.32 811.991 1206.32 802.104C1206.32 791.962 1208 783.368 1211.34 776.322C1214.69 769.248 1219.37 763.921 1225.38 760.342C1231.39 756.762 1238.4 754.972 1246.4 754.972C1251.64 754.972 1256.61 755.74 1261.29 757.274C1265.97 758.779 1270.23 760.853 1274.09 763.495V715H1284.73V846.253H1274.94ZM1274.09 772.956C1270.04 770.058 1265.75 767.856 1261.24 766.351C1256.73 764.816 1252.07 764.049 1247.25 764.049C1240.84 764.049 1235.42 765.441 1231 768.226C1226.57 771.01 1223.21 775.2 1220.91 780.797C1218.62 786.394 1217.47 793.382 1217.47 801.763C1217.47 809.974 1218.59 816.835 1220.83 822.346C1223.1 827.858 1226.43 832.005 1230.83 834.789C1235.25 837.545 1240.67 838.923 1247.08 838.923C1251.87 838.923 1256.44 838.071 1260.78 836.366C1265.14 834.633 1269.58 832.048 1274.09 828.61V772.956Z" fill="black"/>
<path d="M1313.66 832.659C1317.48 834.42 1322.09 835.912 1327.48 837.133C1332.9 838.326 1338.16 838.923 1343.26 838.923C1349.08 838.923 1353.84 838.27 1357.56 836.963C1361.3 835.628 1364.04 833.753 1365.77 831.338C1367.5 828.923 1368.36 826.039 1368.36 822.687C1368.36 819.249 1367.47 816.494 1365.68 814.42C1363.9 812.346 1361.44 810.712 1358.32 809.519C1355.23 808.326 1350.92 807.076 1345.39 805.769C1338.33 804.093 1332.61 802.275 1328.25 800.314C1323.88 798.326 1320.5 795.698 1318.12 792.431C1315.74 789.135 1314.55 784.902 1314.55 779.731C1314.55 774.959 1315.7 770.726 1317.99 767.032C1320.32 763.311 1323.94 760.37 1328.84 758.211C1333.75 756.052 1339.96 754.972 1347.48 754.972C1352.16 754.972 1356.81 755.498 1361.43 756.549C1366.08 757.572 1370.08 758.964 1373.43 760.725V769.802C1369.68 768.069 1365.53 766.677 1360.96 765.626C1356.4 764.575 1351.84 764.049 1347.31 764.049C1342.14 764.049 1337.92 764.66 1334.63 765.882C1331.34 767.103 1328.93 768.822 1327.4 771.038C1325.89 773.254 1325.14 775.925 1325.14 779.05C1325.14 782.487 1326.04 785.257 1327.82 787.359C1329.61 789.433 1332.06 791.067 1335.18 792.26C1338.3 793.453 1342.63 794.689 1348.16 795.968C1355.22 797.644 1360.93 799.476 1365.3 801.465C1369.67 803.425 1373.04 806.053 1375.43 809.349C1377.81 812.616 1379 816.835 1379 822.005C1379 827.176 1377.68 831.707 1375.04 835.599C1372.41 839.491 1368.38 842.531 1362.96 844.719C1357.57 846.906 1350.89 848 1342.92 848C1337.39 848 1332.06 847.446 1326.93 846.338C1321.82 845.258 1317.4 843.781 1313.66 841.906V832.659Z" fill="black"/>
<path d="M531 491.659V588.798H490.926V491.659H531Z" fill="black"/>
<path d="M318.842 493.129V548.464C318.842 562.486 314.177 570.6 307.78 576.754C295.49 588.803 278.281 592 255.911 592C237.474 592 217.56 588.557 205.761 576.995C198.882 570.605 194.699 561.262 194.699 548.714V493.133H234.032V534.945C234.032 536.2 234.004 537.427 233.976 538.627C233.922 540.947 233.871 543.163 234.032 545.271L234.032 545.271C234.278 548.223 234.524 551.174 235.26 553.872C237.72 561.986 243.867 567.149 257.139 567.149C266.724 567.149 276.067 563.223 278.772 554.368C279.509 551.17 280 547.723 280 535.428V493.129H318.842Z" fill="black"/>
<path fill-rule="evenodd" clip-rule="evenodd" d="M113.818 456.004L202.319 588.798H156.102L143.562 568.39C143.198 567.8 143.026 567.112 143.071 566.42C142.58 566.662 141.598 566.908 140.37 566.908H60.4756C59.7235 566.908 58.9699 566.725 58.3859 566.583C58.0166 566.493 57.7151 566.42 57.5249 566.42C57.5249 566.907 57.2793 567.894 56.7882 568.877L44.7397 588.798H0L77.1895 472.97C77.4272 472.732 77.8951 472.498 78.3703 472.261L78.4173 472.237C78.3628 472.209 78.3083 472.18 78.254 472.152C77.8227 471.929 77.4076 471.714 77.1895 471.496L64.163 456.004H113.818ZM122.179 541.091C124.155 541.076 126.129 541.239 128.076 541.578L128.021 541.523C127.268 540.765 125.842 539.331 124.88 537.897L104.475 504.695C101.769 500.019 100.542 497.067 100.05 495.839C99.5594 497.067 98.3316 500.019 95.6264 504.441L75.7162 537.398C74.2888 539.306 72.8575 540.745 72.0998 541.506L72.0289 541.578C73.2566 541.336 75.7162 541.091 77.9303 541.091H122.179Z" fill="black"/>
<path fill-rule="evenodd" clip-rule="evenodd" d="M461.922 498.05C475.685 515.511 480.113 528.055 480.113 538.88C480.113 554.126 473.97 565.679 464.873 574.044C449.378 588.062 422.089 591.996 404.638 591.996C392.835 591.996 360.64 590.272 342.935 572.57C335.069 564.455 328.922 553.876 328.922 540.108C328.922 522.152 338.757 508.621 353.51 500.515C367.269 492.887 382.764 489.69 398.004 489.69C404.397 489.69 412.508 491.16 418.897 494.852C418.897 494.852 413.245 490.431 408.817 485.51L382.514 456H428.731L461.922 498.05ZM426.763 561.991C435.12 557.811 441.762 550.192 441.762 540.108C441.762 530.512 434.391 521.656 423.325 516.989C417.178 514.524 409.312 513.791 403.898 513.791C398.25 513.791 391.121 514.778 385.219 517.476C375.626 521.656 367.515 530.024 367.515 540.595C367.515 549.451 373.912 557.565 382.269 561.745C389.152 565.188 397.513 566.666 404.638 566.666C411.763 566.666 419.879 565.683 426.763 561.991Z" fill="black"/>
</svg>
